<svg xmlns="http://www.w3.org/2000/svg" xmlns:xlink="http://www.w3.org/1999/xlink" contentStyleType="text/css" data-diagram-type="DESCRIPTION" height="751px" preserveAspectRatio="none" style="width:1593px;height:751px;background:#FFFFFF;" version="1.1" viewBox="0 0 1593 751" width="1593px" zoomAndPan="magnify"><?plantuml 1.2026.6?><defs/><g><!--cluster Infra--><g class="cluster" data-qualified-name="Infra" data-source-line="13" id="ent0006"><path d="M263.5,188 L304.3398,188 A3.75,3.75 0 0 1 306.8398,190.5 L313.8398,211.0146 L756.5,211.0146 A2.5,2.5 0 0 1 759,213.5146 L759,545.5 A2.5,2.5 0 0 1 756.5,548 L263.5,548 A2.5,2.5 0 0 1 261,545.5 L261,190.5 A2.5,2.5 0 0 1 263.5,188" fill="#FFFFFF" style="stroke:#000000;stroke-width:1;"/><line style="stroke:#000000;stroke-width:1;" x1="261" x2="313.8398" y1="211.0146" y2="211.0146"/><text fill="#000000" font-family="Verdana" font-size="14" font-weight="700" lengthAdjust="spacing" textLength="39.8398" x="265" y="204.0752">Infra</text></g><!--cluster Foundation--><g class="cluster" data-qualified-name="Foundation" data-source-line="26" id="ent0017"><path d="M769.5,90 L859.0527,90 A3.75,3.75 0 0 1 861.5527,92.5 L868.5527,113.0146 L1012.5,113.0146 A2.5,2.5 0 0 1 1015,115.5146 L1015,365.5 A2.5,2.5 0 0 1 1012.5,368 L769.5,368 A2.5,2.5 0 0 1 767,365.5 L767,92.5 A2.5,2.5 0 0 1 769.5,90" fill="#FFFFFF" style="stroke:#000000;stroke-width:1;"/><line style="stroke:#000000;stroke-width:1;" x1="767" x2="868.5527" y1="113.0146" y2="113.0146"/><text fill="#000000" font-family="Verdana" font-size="14" font-weight="700" lengthAdjust="spacing" textLength="88.5527" x="771" y="106.0752">Foundation</text></g><!--cluster Network--><g class="cluster" data-qualified-name="Network" data-source-line="33" id="ent0022"><path d="M147.5,188 L215.7041,188 A3.75,3.75 0 0 1 218.2041,190.5 L225.2041,211.0146 L250.5,211.0146 A2.5,2.5 0 0 1 253,213.5146 L253,275.5 A2.5,2.5 0 0 1 250.5,278 L147.5,278 A2.5,2.5 0 0 1 145,275.5 L145,190.5 A2.5,2.5 0 0 1 147.5,188" fill="#FFFFFF" style="stroke:#000000;stroke-width:1;"/><line style="stroke:#000000;stroke-width:1;" x1="145" x2="225.2041" y1="211.0146" y2="211.0146"/><text fill="#000000" font-family="Verdana" font-size="14" font-weight="700" lengthAdjust="spacing" textLength="67.2041" x="149" y="204.0752">Network</text></g><!--cluster Utils--><g class="cluster" data-qualified-name="Utils" data-source-line="37" id="ent0024"><path d="M1193.5,90 L1230.1221,90 A3.75,3.75 0 0 1 1232.6221,92.5 L1239.6221,113.0146 L1560.5,113.0146 A2.5,2.5 0 0 1 1563,115.5146 L1563,177.5 A2.5,2.5 0 0 1 1560.5,180 L1193.5,180 A2.5,2.5 0 0 1 1191,177.5 L1191,92.5 A2.5,2.5 0 0 1 1193.5,90" fill="#FFFFFF" style="stroke:#000000;stroke-width:1;"/><line style="stroke:#000000;stroke-width:1;" x1="1191" x2="1239.6221" y1="113.0146" y2="113.0146"/><text fill="#000000" font-family="Verdana" font-size="14" font-weight="700" lengthAdjust="spacing" textLength="35.6221" x="1195" y="106.0752">Utils</text></g><!--cluster Feature Layer--><g class="cluster" data-qualified-name="Feature Layer" data-source-line="43" id="ent0028"><path d="M911.5,9 L1021.2871,9 A3.75,3.75 0 0 1 1023.7871,11.5 L1030.7871,32.0146 L1184.5,32.0146 A2.5,2.5 0 0 1 1187,34.5146 L1187,79.5 A2.5,2.5 0 0 1 1184.5,82 L911.5,82 A2.5,2.5 0 0 1 909,79.5 L909,11.5 A2.5,2.5 0 0 1 911.5,9" fill="#FFFFFF" style="stroke:#000000;stroke-width:1;"/><line style="stroke:#000000;stroke-width:1;" x1="909" x2="1030.7871" y1="32.0146" y2="32.0146"/><text fill="#000000" font-family="Verdana" font-size="14" font-weight="700" lengthAdjust="spacing" textLength="108.7871" x="913" y="25.0752">Feature Layer</text></g><!--entity ext_httpclient--><g class="entity" data-qualified-name="ext_httpclient" data-source-line="7" id="ent0001"><path d="M20.0021,318.4097 C23.7667,310.1449 29.9253,311.1227 34.6253,317.4738 C38.4185,310.4938 42.8117,309.1373 48.1576,315.9504 C51.0122,307.8609 55.1965,307.2011 61.2624,312.8978 C67.3433,307.3846 73.3862,307.8629 77.1323,315.6778 C82.042,309.9308 86.9293,309.4386 90.7124,316.8413 C95.9182,311.4371 100.8759,310.1335 104.7239,318.2486 C112.8127,319.3982 116.652,326.9478 111.6066,333.8805 C117.6594,340.84 113.6714,347.9628 105.5452,349.3758 C101.6953,358.6862 96.0014,358.0757 89.4554,352.24 C86.5493,357.9665 80.2951,358.7842 76.3485,353.4759 C72.896,360.9115 66.9406,361.7794 61.4436,355.7367 C56.4301,360.1951 51.6185,359.9622 48.57,353.4342 C42.9075,359.855 37.3524,359.9789 33.1587,351.8757 C27.8497,357.5618 23.1643,355.86 20.1594,349.4081 C11.2993,346.3741 9.3879,340.1415 15.7887,333.034 C10.4794,327.1716 11.0752,320.1704 20.0021,318.4097" fill="#E8F0FE" style="stroke:#000000;stroke-width:1;"/><text fill="#000000" font-family="Verdana" font-size="14" lengthAdjust="spacing" textLength="70.4512" x="26" y="338.5752">HttpClient</text></g><!--entity ext_swiftioc--><g class="entity" data-qualified-name="ext_swiftioc" data-source-line="8" id="ent0002"><path d="M776.5712,408.8409 C778.7187,401.3558 785.3274,400.3993 789.8077,406.5817 C792.244,399.9226 798.2745,399.7598 801.8204,405.5072 C803.9799,399.3342 807.5893,398.9548 812.5237,402.4282 C817.5589,396.666 821.0072,398.4319 824.5442,404.0155 C829.9389,399.5745 834.5352,400.6633 837.4582,406.982 C842.6953,400.404 847.1522,401.0426 850.7873,408.5031 C860.357,409.9377 863.9422,414.5808 859.4292,423.913 C863.9608,431.4863 859.2792,438.8283 850.8859,439.1589 C846.7771,445.9507 842.2412,446.1943 836.926,440.5087 C832.6659,446.5862 828.4394,445.9032 825.2453,439.5103 C822.8243,446.1329 818.8304,446.1046 814.1104,441.8677 C810.1597,448.5582 803.7988,448.5331 800.6948,441.0654 C796.9806,445.8964 790.9877,446.4904 788.4296,439.8314 C785.3799,445.0628 779.8818,444.4122 776.8888,439.7652 C767.4486,439.1893 763.7153,433.3516 768.5756,424.8207 C762.2514,415.7844 765.4833,409.165 776.5712,408.8409" fill="#E8F0FE" style="stroke:#000000;stroke-width:1;"/><text fill="#000000" font-family="Verdana" font-size="14" lengthAdjust="spacing" textLength="59.4727" x="782.5" y="428.5752">SwiftIoC</text></g><!--entity ext_swiftuirelux--><g class="entity" data-qualified-name="ext_swiftuirelux" data-source-line="9" id="ent0003"><path d="M138.4261,318.7538 C141.2459,313.0815 146.7967,310.9742 151.2613,316.9398 C155.5333,311.3192 160.2127,310.8547 164.4697,316.9567 C167.7805,309.5289 172.3506,309.0793 177.9146,314.6209 C181.6148,307.0697 186.3344,307.3231 191.6954,312.874 C196.0707,307.992 202.4773,309.0061 204.9822,315.1317 C209.1278,310.0255 214.8124,309.5277 217.6669,316.4888 C221.702,310.9894 226.3789,309.7361 230.4132,316.4896 C235.7002,311.4757 240.8702,311.1758 244.0112,318.7989 C252.0559,322.1087 252.6984,328.892 245.2331,333.4917 C252.5805,338.7025 251.7282,345.2464 244.2,349.497 C240.3409,356.773 235.3713,358.1021 229.9596,351.0389 C227.3001,357.5444 222.3104,358.5863 217.8667,352.7931 C216.1157,360.9415 209.2531,361.715 204.084,356.255 C201.4257,362.8521 196.2339,363.0052 191.7647,358.214 C185.7537,365.1007 179.6153,362.7107 177.1134,354.751 C172.5698,360.5462 168.3654,359.2839 164.9055,353.5987 C160.4228,359.956 153.7975,359.6233 151.0307,351.9069 C147.0113,357.078 141.4403,356.0923 139.6905,349.6842 C131.2694,348.0597 126.5345,342.422 133.0512,334.3358 C126.7906,326.8103 128.7568,320.7844 138.4261,318.7538" fill="#E8F0FE" style="stroke:#000000;stroke-width:1;"/><text fill="#000000" font-family="Verdana" font-size="14" lengthAdjust="spacing" textLength="90.5078" x="144.5" y="338.5752">SwiftUIRelux</text></g><!--entity ext_fireauthrelux--><g class="entity" data-qualified-name="ext_fireauthrelux" data-source-line="10" id="ent0004"><path d="M1033.446,228.34 C1036.8282,221.1703 1040.6705,222.3064 1045.5453,226.7903 C1047.6641,220.9012 1052.7271,220.5685 1056.0715,225.6099 C1058.9085,220.2412 1064.6966,218.5174 1068.2868,224.8218 C1070.7397,219.6432 1075.9339,218.6784 1079.4022,223.7171 C1082.8279,219.0337 1087.1098,217.472 1090.6376,223.6112 C1094.2896,219.8779 1097.6204,219.2385 1100.5527,224.4122 C1105.0511,218.047 1109.6907,218.0895 1113.449,225.1245 C1116.925,221.0817 1121.3963,220.9415 1123.2744,226.7226 C1126.4682,222.0814 1130.9188,222.176 1134.1441,226.6852 C1137.9,222.655 1143.2963,223.5449 1145.2776,228.8107 C1155.2407,229.2321 1160.1334,234.2509 1155.4709,244.2983 C1160.884,253.9889 1156.605,259.2587 1146.6335,260.6186 C1143.6199,267.093 1138.4899,267.3566 1134.8511,261.2019 C1132.5603,267.4606 1127.054,267.4356 1123.5523,262.415 C1121.1992,268.2708 1117.0968,268.7631 1113.4392,263.6137 C1109.697,269.1702 1104.5963,269.9226 1100.2798,264.289 C1097.7035,270.2931 1093.3876,270.9839 1089.238,265.8485 C1085.1112,269.3288 1081.8186,269.2076 1079.7463,263.683 C1075.2371,269.3028 1071.1871,270.197 1067.1221,263.2372 C1063.2523,267.1569 1059.5507,266.1811 1057.564,261.2123 C1052.4695,267.0841 1047.9691,267.3588 1044.3089,259.7972 C1041.3074,264.9358 1036.5717,264.1029 1034.5254,258.8941 C1027.5552,255.8388 1025.8916,250.5643 1031.5905,244.8596 C1025.3854,238.4196 1024.8492,233.1174 1033.446,228.34" fill="#E8F0FE" style="stroke:#000000;stroke-width:1;"/><text fill="#000000" font-family="Verdana" font-size="14" lengthAdjust="spacing" textLength="98.0684" x="1040" y="248.5752">FireAuthRelux</text></g><!--entity ext_fireauthkit--><g class="entity" data-qualified-name="ext_fireauthkit" data-source-line="11" id="ent0005"><path d="M1180.7861,229.6469 C1183.9145,224.261 1187.7943,222.0975 1192.6265,227.833 C1195.6414,221.9839 1199.2038,221.6543 1203.8669,226.0193 C1206.4843,221.0297 1211.8359,220.7524 1214.9702,225.4253 C1217.5707,218.6414 1222.6858,219.2307 1226.7914,223.8675 C1230.9937,219.4285 1234.2298,219.458 1237.3256,225.0316 C1241.1803,219.3845 1245.3499,219.5717 1249.0987,225.1427 C1253.4377,220.0587 1258.3672,220.9677 1261.2931,226.7313 C1265.8835,223.3804 1269.5148,223.1374 1271.6356,229.3907 C1279.73,230.5749 1283.9389,237.1866 1277.8393,244.2835 C1283.2984,251.5035 1281.7095,257.8485 1272.8179,260.6713 C1269.6193,267.137 1264.8206,266.4873 1260.7112,261.6466 C1257.9826,267.9577 1254.1693,267.8188 1249.8253,263.2651 C1248.2615,270.5722 1241.8722,272.5209 1236.5696,267.1852 C1234.024,273.5543 1230.4211,274.8727 1225.3874,269.5687 C1220.7137,273.8576 1216.5626,272.4046 1214.7321,266.5748 C1210.2331,272.2612 1205.1888,270.1851 1202.6753,264.4744 C1197.7667,268.6086 1194.0103,269.1033 1190.8438,262.5465 C1186.4757,267.0457 1181.8291,266.7649 1179.4507,260.4502 C1170.2761,258.5847 1167.5514,253.035 1172.1024,244.7467 C1167.1455,235.6172 1171.3531,230.501 1180.7861,229.6469" fill="#E8F0FE" style="stroke:#000000;stroke-width:1;"/><text fill="#000000" font-family="Verdana" font-size="14" lengthAdjust="spacing" textLength="78.0664" x="1186" y="248.5752">FireAuthKit</text></g><g class="entity" data-qualified-name="GMN30" data-source-line="48" id="ent0031"><path d="M1196.5,34.5 L1196.5,51.5 L1178.7666,55.5 L1196.5,59.5 L1196.5,76.0986 A0,0 0 0 0 1196.5,76.0986 L1577.2217,76.0986 A0,0 0 0 0 1577.2217,76.0986 L1577.2217,44.5 L1567.2217,34.5 L1196.5,34.5 A0,0 0 0 0 1196.5,34.5" fill="#FFFFFF" style="stroke:#000000;stroke-width:1;"/><path d="M1567.2217,34.5 L1567.2217,44.5 L1577.2217,44.5 L1567.2217,34.5" fill="#FFFFFF" style="stroke:#000000;stroke-width:1;"/><text fill="#000000" font-family="Verdana" font-size="13" lengthAdjust="spacing" textLength="185.6563" x="1202.5" y="52.5698">Conceptual runtime module.</text><text fill="#000000" font-family="Verdana" font-size="13" lengthAdjust="spacing" textLength="359.7217" x="1202.5" y="68.3691">Feature modules are not registered in module registry.</text></g><!--entity mod_app_extensions--><g class="entity" data-qualified-name="Infra.mod_app_extensions" data-source-line="14" id="ent0007"><rect fill="#FFF3CD" height="54.0293" rx="2.5" ry="2.5" style="stroke:#000000;stroke-width:1;" width="127.5771" x="476" y="486"/><text fill="#000000" font-family="Verdana" font-size="14" font-style="italic" lengthAdjust="spacing" textLength="69.9316" x="504.8228" y="510.0752">&#171;module&#187;</text><text fill="#000000" font-family="Verdana" font-size="14" lengthAdjust="spacing" textLength="107.5771" x="486" y="527.0898">App Extensions</text></g><!--entity mod_app_intents--><g class="entity" data-qualified-name="Infra.mod_app_intents" data-source-line="15" id="ent0008"><rect fill="#FFF3CD" height="54.0293" rx="2.5" ry="2.5" style="stroke:#000000;stroke-width:1;" width="102.2158" x="649" y="306"/><text fill="#000000" font-family="Verdana" font-size="14" font-style="italic" lengthAdjust="spacing" textLength="69.9316" x="665.1421" y="330.0752">&#171;module&#187;</text><text fill="#000000" font-family="Verdana" font-size="14" lengthAdjust="spacing" textLength="82.2158" x="659" y="347.0898">App Intents</text></g><!--entity mod_init--><g class="entity" data-qualified-name="Infra.mod_init" data-source-line="16" id="ent0009"><rect fill="#FFF3CD" height="54.0293" rx="2.5" ry="2.5" style="stroke:#000000;stroke-width:1;" width="91.9316" x="277" y="396"/><text fill="#000000" font-family="Verdana" font-size="14" font-style="italic" lengthAdjust="spacing" textLength="69.9316" x="288" y="420.0752">&#171;module&#187;</text><text fill="#000000" font-family="Verdana" font-size="14" lengthAdjust="spacing" textLength="24.1104" x="310.9106" y="437.0898">Init</text></g><!--entity mod_ioc--><g class="entity" data-qualified-name="Infra.mod_ioc" data-source-line="17" id="ent0010"><rect fill="#FFF3CD" height="54.0293" rx="2.5" ry="2.5" style="stroke:#000000;stroke-width:1;" width="91.9316" x="395" y="306"/><text fill="#000000" font-family="Verdana" font-size="14" font-style="italic" lengthAdjust="spacing" textLength="69.9316" x="406" y="330.0752">&#171;module&#187;</text><text fill="#000000" font-family="Verdana" font-size="14" lengthAdjust="spacing" textLength="24.165" x="428.8833" y="347.0898">IoC</text></g><!--entity mod_live_activity--><g class="entity" data-qualified-name="Infra.mod_live_activity" data-source-line="18" id="ent0011"><rect fill="#FFF3CD" height="54.0293" rx="2.5" ry="2.5" style="stroke:#000000;stroke-width:1;" width="105.333" x="525.5" y="306"/><text fill="#000000" font-family="Verdana" font-size="14" font-style="italic" lengthAdjust="spacing" textLength="69.9316" x="543.2007" y="330.0752">&#171;module&#187;</text><text fill="#000000" font-family="Verdana" font-size="14" lengthAdjust="spacing" textLength="85.333" x="535.5" y="347.0898">Live Activity</text></g><!--entity mod_notification_service--><g class="entity" data-qualified-name="Infra.mod_notification_service" data-source-line="19" id="ent0012"><rect fill="#FFF3CD" height="54.0293" rx="2.5" ry="2.5" style="stroke:#000000;stroke-width:1;" width="156.0762" x="387" y="396"/><text fill="#000000" font-family="Verdana" font-size="14" font-style="italic" lengthAdjust="spacing" textLength="69.9316" x="430.0723" y="420.0752">&#171;module&#187;</text><text fill="#000000" font-family="Verdana" font-size="14" lengthAdjust="spacing" textLength="136.0762" x="397" y="437.0898">Notification Service</text></g><!--entity mod_relux--><g class="entity" data-qualified-name="Infra.mod_relux" data-source-line="20" id="ent0013"><rect fill="#FFF3CD" height="54.0293" rx="2.5" ry="2.5" style="stroke:#000000;stroke-width:1;" width="91.9316" x="395" y="216"/><text fill="#000000" font-family="Verdana" font-size="14" font-style="italic" lengthAdjust="spacing" textLength="69.9316" x="406" y="240.0752">&#171;module&#187;</text><text fill="#000000" font-family="Verdana" font-size="14" lengthAdjust="spacing" textLength="39.0605" x="421.4355" y="257.0898">Relux</text></g><!--entity mod_static_widget--><g class="entity" data-qualified-name="Infra.mod_static_widget" data-source-line="21" id="ent0014"><rect fill="#FFF3CD" height="54.0293" rx="2.5" ry="2.5" style="stroke:#000000;stroke-width:1;" width="114.0557" x="571" y="216"/><text fill="#000000" font-family="Verdana" font-size="14" font-style="italic" lengthAdjust="spacing" textLength="69.9316" x="593.062" y="240.0752">&#171;module&#187;</text><text fill="#000000" font-family="Verdana" font-size="14" lengthAdjust="spacing" textLength="94.0557" x="581" y="257.0898">Static Widget</text></g><!--entity mod_test_targets--><g class="entity" data-qualified-name="Infra.mod_test_targets" data-source-line="22" id="ent0015"><rect fill="#FFF3CD" height="54.0293" rx="2.5" ry="2.5" style="stroke:#000000;stroke-width:1;" width="107.582" x="269" y="306"/><text fill="#000000" font-family="Verdana" font-size="14" font-style="italic" lengthAdjust="spacing" textLength="69.9316" x="287.8252" y="330.0752">&#171;module&#187;</text><text fill="#000000" font-family="Verdana" font-size="14" lengthAdjust="spacing" textLength="87.582" x="279" y="347.0898">Test Targets</text></g><!--entity mod_widget_base--><g class="entity" data-qualified-name="Infra.mod_widget_base" data-source-line="23" id="ent0016"><rect fill="#FFF3CD" height="54.0293" rx="2.5" ry="2.5" style="stroke:#000000;stroke-width:1;" width="107.5479" x="561" y="396"/><text fill="#000000" font-family="Verdana" font-size="14" font-style="italic" lengthAdjust="spacing" textLength="69.9316" x="579.8081" y="420.0752">&#171;module&#187;</text><text fill="#000000" font-family="Verdana" font-size="14" lengthAdjust="spacing" textLength="87.5479" x="571" y="437.0898">Widget Base</text></g><!--entity mod_app_config--><g class="entity" data-qualified-name="Foundation.mod_app_config" data-source-line="27" id="ent0018"><rect fill="#D6EAF8" height="54.0293" rx="2.5" ry="2.5" style="stroke:#000000;stroke-width:1;" width="91.9316" x="775" y="216"/><text fill="#000000" font-family="Verdana" font-size="14" font-style="italic" lengthAdjust="spacing" textLength="69.9316" x="786" y="240.0752">&#171;module&#187;</text><text fill="#000000" font-family="Verdana" font-size="14" lengthAdjust="spacing" textLength="71.6338" x="785.1489" y="257.0898">AppConfig</text></g><!--entity mod_secure_store--><g class="entity" data-qualified-name="Foundation.mod_secure_store" data-source-line="28" id="ent0019"><rect fill="#D6EAF8" height="54.0293" rx="2.5" ry="2.5" style="stroke:#000000;stroke-width:1;" width="106.2764" x="838" y="306"/><text fill="#000000" font-family="Verdana" font-size="14" font-style="italic" lengthAdjust="spacing" textLength="69.9316" x="856.1724" y="330.0752">&#171;module&#187;</text><text fill="#000000" font-family="Verdana" font-size="14" lengthAdjust="spacing" textLength="86.2764" x="848" y="347.0898">SecureStore</text></g><!--entity mod_token_provider--><g class="entity" data-qualified-name="Foundation.mod_token_provider" data-source-line="29" id="ent0020"><rect fill="#D6EAF8" height="54.0293" rx="2.5" ry="2.5" style="stroke:#000000;stroke-width:1;" width="120.6865" x="885.5" y="216"/><text fill="#000000" font-family="Verdana" font-size="14" font-style="italic" lengthAdjust="spacing" textLength="69.9316" x="910.8774" y="240.0752">&#171;module&#187;</text><text fill="#000000" font-family="Verdana" font-size="14" lengthAdjust="spacing" textLength="100.6865" x="895.5" y="257.0898">TokenProvider</text></g><!--entity mod_fireauth_relux--><g class="entity" data-qualified-name="Foundation.mod_fireauth_relux" data-source-line="30" id="ent0021"><rect fill="#D6EAF8" height="54.0293" rx="2.5" ry="2.5" style="stroke:#000000;stroke-width:1;" width="163.999" x="843" y="118"/><text fill="#000000" font-family="Verdana" font-size="14" font-style="italic" lengthAdjust="spacing" textLength="69.9316" x="890.0337" y="142.0752">&#171;module&#187;</text><text fill="#000000" font-family="Verdana" font-size="14" lengthAdjust="spacing" textLength="143.999" x="853" y="159.0898">FireAuthRelux Setup</text></g><!--entity mod_http_client--><g class="entity" data-qualified-name="Network.mod_http_client" data-source-line="34" id="ent0023"><rect fill="#FFE0B2" height="54.0293" rx="2.5" ry="2.5" style="stroke:#000000;stroke-width:1;" width="91.9316" x="153" y="216"/><text fill="#000000" font-family="Verdana" font-size="14" font-style="italic" lengthAdjust="spacing" textLength="69.9316" x="164" y="240.0752">&#171;module&#187;</text><text fill="#000000" font-family="Verdana" font-size="14" lengthAdjust="spacing" textLength="70.4512" x="163.7402" y="257.0898">HttpClient</text></g><!--entity mod_foundation_plus--><g class="entity" data-qualified-name="Utils.mod_foundation_plus" data-source-line="38" id="ent0025"><rect fill="#E1BEE7" height="54.0293" rx="2.5" ry="2.5" style="stroke:#000000;stroke-width:1;" width="126.5449" x="1317.5" y="118"/><text fill="#000000" font-family="Verdana" font-size="14" font-style="italic" lengthAdjust="spacing" textLength="69.9316" x="1345.8066" y="142.0752">&#171;module&#187;</text><text fill="#000000" font-family="Verdana" font-size="14" lengthAdjust="spacing" textLength="106.5449" x="1327.5" y="159.0898">FoundationPlus</text></g><!--entity mod_swiftui_plus--><g class="entity" data-qualified-name="Utils.mod_swiftui_plus" data-source-line="39" id="ent0026"><rect fill="#E1BEE7" height="54.0293" rx="2.5" ry="2.5" style="stroke:#000000;stroke-width:1;" width="99.8848" x="1199" y="118"/><text fill="#000000" font-family="Verdana" font-size="14" font-style="italic" lengthAdjust="spacing" textLength="69.9316" x="1213.9766" y="142.0752">&#171;module&#187;</text><text fill="#000000" font-family="Verdana" font-size="14" lengthAdjust="spacing" textLength="79.8848" x="1209" y="159.0898">SwiftUIPlus</text></g><!--entity mod_utilities--><g class="entity" data-qualified-name="Utils.mod_utilities" data-source-line="40" id="ent0027"><rect fill="#E1BEE7" height="54.0293" rx="2.5" ry="2.5" style="stroke:#000000;stroke-width:1;" width="91.9316" x="1463" y="118"/><text fill="#000000" font-family="Verdana" font-size="14" font-style="italic" lengthAdjust="spacing" textLength="69.9316" x="1474" y="142.0752">&#171;module&#187;</text><text fill="#000000" font-family="Verdana" font-size="14" lengthAdjust="spacing" textLength="52.2813" x="1482.8252" y="159.0898">Utilities</text></g><!--entity FeatureModule--><g class="entity" data-qualified-name="Feature Layer.FeatureModule" data-source-line="44" id="ent0029"><rect fill="#F5E6CC" height="37.0146" rx="2.5" ry="2.5" style="stroke:#000000;stroke-width:1;" width="261.3359" x="917.5" y="37"/><text fill="#000000" font-family="Verdana" font-size="14" lengthAdjust="spacing" textLength="241.3359" x="927.5" y="61.0752">Feature Module (relux + backend)</text></g><g class="link" data-entity-1="ent0029" data-entity-2="ent0018" data-link-type="dependency" id="lnk33"><polygon fill="#000000" points="809.2913,215.8982,809.756,206.0603,807.4784,211.2384,802.3003,208.9609,809.2913,215.8982" style="stroke:#000000;stroke-width:1;stroke-linejoin:miter;stroke-miterlimit:10;"/><path d="M917.3532,60.0978 C870.6076,64.3699 825.7831,72.9803 811,90 C780.8246,124.7406 794.4758,177.8162 807.4784,211.2384" fill="none" style="stroke:#000000;stroke-width:1;stroke-dasharray:7,7;"/></g><g class="link" data-entity-1="ent0029" data-entity-2="ent0019" data-link-type="dependency" id="lnk34"><polygon fill="#000000" points="944.0814,328.6139,953.3356,331.9843,949.0695,328.2694,952.7844,324.0033,944.0814,328.6139" style="stroke:#000000;stroke-width:1;stroke-linejoin:miter;stroke-miterlimit:10;"/><path d="M1061.4665,74.3282 C1083.9341,102.5212 1132.058,156.5938 1187,180 C1207.7134,188.8243 1272.7211,171.4631 1288,188 C1315.1446,217.3797 1314.3093,247.8699 1288,278 C1265.6966,303.5425 1052.0136,321.1598 949.0695,328.2694" fill="none" style="stroke:#000000;stroke-width:1;stroke-dasharray:7,7;"/></g><g class="link" data-entity-1="ent0029" data-entity-2="ent0020" data-link-type="dependency" id="lnk35"><polygon fill="#000000" points="918.3571,215.8205,914.0166,206.9796,914.5206,212.614,908.8862,213.118,918.3571,215.8205" style="stroke:#000000;stroke-width:1;stroke-linejoin:miter;stroke-miterlimit:10;"/><path d="M917.4737,63.0678 C879.974,67.8502 845.9491,76.0348 834,90 C807.9947,120.3929 808.4988,149.183 834,180 C846.1145,194.6398 858.6698,180.2057 876,188 C891.2579,194.8623 902.3765,202.464 914.5206,212.614" fill="none" style="stroke:#000000;stroke-width:1;stroke-dasharray:7,7;"/></g><g class="link" data-entity-1="ent0029" data-entity-2="ent0021" data-link-type="dependency" id="lnk36"><polygon fill="#000000" points="961.9926,117.6841,971.645,115.7265,966.0669,114.7857,967.0076,109.2077,961.9926,117.6841" style="stroke:#000000;stroke-width:1;stroke-linejoin:miter;stroke-miterlimit:10;"/><path d="M1023.1091,74.2069 C1005.5598,86.6912 985.8317,100.7254 966.0669,114.7857" fill="none" style="stroke:#000000;stroke-width:1;stroke-dasharray:7,7;"/></g><g class="link" data-entity-1="ent0029" data-entity-2="ent0023" data-link-type="dependency" id="lnk37"><polygon fill="#000000" points="221.1874,215.7572,230.3418,212.1244,224.6853,212.1844,224.6253,206.5279,221.1874,215.7572" style="stroke:#000000;stroke-width:1;stroke-linejoin:miter;stroke-miterlimit:10;"/><path d="M917.1927,69.8125 C868.6577,75.2942 813.2136,82.1973 763,90 C536.6486,125.1728 461.1774,84.1555 257,188 C243.6332,194.7983 234.6321,202.0243 224.6853,212.1844" fill="none" style="stroke:#000000;stroke-width:1;stroke-dasharray:7,7;"/></g><g class="link" data-entity-1="ent0029" data-entity-2="ent0025" data-link-type="dependency" id="lnk38"><polygon fill="#000000" points="1353.4252,117.7379,1349.0259,108.9261,1349.5674,114.557,1343.9366,115.0985,1353.4252,117.7379" style="stroke:#000000;stroke-width:1;stroke-linejoin:miter;stroke-miterlimit:10;"/><path d="M1135.5162,74.018 C1152.854,77.042 1170.9602,79.8871 1188,82 C1214.5227,85.2888 1282.9104,80.7923 1308,90 C1324.575,96.0829 1336.7618,103.9983 1349.5674,114.557" fill="none" style="stroke:#000000;stroke-width:1;stroke-dasharray:7,7;"/></g><g class="link" data-entity-1="ent0029" data-entity-2="ent0026" data-link-type="dependency" id="lnk39"><polygon fill="#000000" points="1223.5946,117.8579,1219.6261,108.8439,1219.895,114.4944,1214.2445,114.7633,1223.5946,117.8579" style="stroke:#000000;stroke-width:1;stroke-linejoin:miter;stroke-miterlimit:10;"/><path d="M1144.3707,74.0704 C1158.385,78.3248 1172.3405,83.564 1185,90 C1198.996,97.1154 1208.8739,104.4745 1219.895,114.4944" fill="none" style="stroke:#000000;stroke-width:1;stroke-dasharray:7,7;"/></g><g class="link" data-entity-1="ent0029" data-entity-2="ent0027" data-link-type="dependency" id="lnk40"><polygon fill="#000000" points="1489.708,117.8287,1486.7382,108.4383,1486.3941,114.0846,1480.7477,113.7405,1489.708,117.8287" style="stroke:#000000;stroke-width:1;stroke-linejoin:miter;stroke-miterlimit:10;"/><path d="M1132.8454,74.0611 C1150.974,77.2211 1170.0646,80.1077 1188,82 C1217.4057,85.1025 1426.8016,78.3997 1454,90 C1467.9089,95.9322 1476.9411,103.4047 1486.3941,114.0846" fill="none" style="stroke:#000000;stroke-width:1;stroke-dasharray:7,7;"/></g><g class="link" data-entity-1="ent0008" data-entity-2="ent0016" data-link-type="dependency" id="lnk41"><polygon fill="#000000" points="640.1919,395.919,649.3216,392.2246,643.6656,392.3227,643.5675,386.6667,640.1919,395.919" style="stroke:#000000;stroke-width:1;stroke-linejoin:miter;stroke-miterlimit:10;"/><path d="M674.4972,360.4029 C663.6412,371.6421 654.4874,381.1189 643.6656,392.3227" fill="none" style="stroke:#000000;stroke-width:1;"/></g><g class="link" data-entity-1="ent0010" data-entity-2="ent0009" data-link-type="dependency" id="lnk42"><polygon fill="#000000" points="358.153,395.7842,367.7589,393.6103,362.1611,392.7951,362.9763,387.1973,358.153,395.7842" style="stroke:#000000;stroke-width:1;stroke-linejoin:miter;stroke-miterlimit:10;"/><path d="M405.9156,360.1646 C390.8338,371.4121 377.2505,381.542 362.1611,392.7951" fill="none" style="stroke:#000000;stroke-width:1;"/></g><g class="link" data-entity-1="ent0011" data-entity-2="ent0016" data-link-type="dependency" id="lnk43"><polygon fill="#000000" points="604.0341,395.919,604.2332,386.0721,602.0962,391.3098,596.8585,389.1729,604.0341,395.919" style="stroke:#000000;stroke-width:1;stroke-linejoin:miter;stroke-miterlimit:10;"/><path d="M589.1012,360.4029 C593.8268,371.6421 597.3855,380.1061 602.0962,391.3098" fill="none" style="stroke:#000000;stroke-width:1;"/></g><g class="link" data-entity-1="ent0012" data-entity-2="ent0007" data-link-type="dependency" id="lnk44"><polygon fill="#000000" points="517.7719,485.919,514.9783,476.4746,514.5286,482.1136,508.8897,481.6638,517.7719,485.919" style="stroke:#000000;stroke-width:1;stroke-linejoin:miter;stroke-miterlimit:10;"/><path d="M487.5025,450.4029 C497.0813,461.6421 504.98,470.9098 514.5286,482.1136" fill="none" style="stroke:#000000;stroke-width:1;"/></g><g class="link" data-entity-1="ent0013" data-entity-2="ent0010" data-link-type="dependency" id="lnk45"><polygon fill="#000000" points="441,305.919,445,296.919,441,300.919,437,296.919,441,305.919" style="stroke:#000000;stroke-width:1;stroke-linejoin:miter;stroke-miterlimit:10;"/><path d="M441,270.4029 C441,281.6421 441,289.7152 441,300.919" fill="none" style="stroke:#000000;stroke-width:1;"/></g><g class="link" data-entity-1="ent0014" data-entity-2="ent0008" data-link-type="dependency" id="lnk46"><polygon fill="#000000" points="678.661,305.919,676.0577,296.4204,675.4948,302.0492,669.866,301.4863,678.661,305.919" style="stroke:#000000;stroke-width:1;stroke-linejoin:miter;stroke-miterlimit:10;"/><path d="M649.6024,270.4029 C658.7981,281.6421 666.3281,290.8455 675.4948,302.0492" fill="none" style="stroke:#000000;stroke-width:1;"/></g><g class="link" data-entity-1="ent0014" data-entity-2="ent0016" data-link-type="dependency" id="lnk47"><polygon fill="#000000" points="560.7629,398.5114,554.4584,390.9448,556.278,396.301,550.9218,398.1206,560.7629,398.5114" style="stroke:#000000;stroke-width:1;stroke-linejoin:miter;stroke-miterlimit:10;"/><path d="M570.9086,261.6062 C549.8243,271.1884 528.1318,285.4175 516,306 C502.0078,329.7387 501.9339,344.305 516,368 C521.5216,377.3014 536.2367,386.4237 556.278,396.301" fill="none" style="stroke:#000000;stroke-width:1;"/></g><g class="link" data-entity-1="ent0015" data-entity-2="ent0009" data-link-type="dependency" id="lnk48"><polygon fill="#000000" points="323,395.919,327,386.919,323,390.919,319,386.919,323,395.919" style="stroke:#000000;stroke-width:1;stroke-linejoin:miter;stroke-miterlimit:10;"/><path d="M323,360.4029 C323,371.6421 323,379.7152 323,390.919" fill="none" style="stroke:#000000;stroke-width:1;"/></g><g class="link" data-entity-1="ent0016" data-entity-2="ent0007" data-link-type="dependency" id="lnk49"><polygon fill="#000000" points="562.2281,485.919,571.1103,481.6638,565.4714,482.1136,565.0217,476.4746,562.2281,485.919" style="stroke:#000000;stroke-width:1;stroke-linejoin:miter;stroke-miterlimit:10;"/><path d="M592.4975,450.4029 C582.9187,461.6421 575.02,470.9098 565.4714,482.1136" fill="none" style="stroke:#000000;stroke-width:1;"/></g><g class="link" data-entity-1="ent0018" data-entity-2="ent0010" data-link-type="dependency" id="lnk50"><polygon fill="#000000" points="487.3458,314.1518,497.1468,315.1211,492.0925,312.5806,494.6329,307.5263,487.3458,314.1518" style="stroke:#000000;stroke-width:1;stroke-linejoin:miter;stroke-miterlimit:10;"/><path d="M781.4669,270.0485 C775.465,273.1454 769.2013,275.9343 763,278 C658.1815,312.9158 623.7381,281.5352 516,306 C506.5928,308.1362 501.4692,309.4769 492.0925,312.5806" fill="none" style="stroke:#000000;stroke-width:1;"/></g><g class="link" data-entity-1="ent0018" data-entity-2="ent0019" data-link-type="dependency" id="lnk51"><polygon fill="#000000" points="870.2537,305.919,867.7814,296.3855,867.1411,302.006,861.5206,301.3657,870.2537,305.919" style="stroke:#000000;stroke-width:1;stroke-linejoin:miter;stroke-miterlimit:10;"/><path d="M842.0023,270.4029 C850.9426,281.6421 858.229,290.8022 867.1411,302.006" fill="none" style="stroke:#000000;stroke-width:1;"/></g><g class="link" data-entity-1="ent0021" data-entity-2="ent0013" data-link-type="dependency" id="lnk52"><polygon fill="#000000" points="487.1786,217.403,497.022,217.0739,491.6772,215.2208,493.5304,209.8761,487.1786,217.403" style="stroke:#000000;stroke-width:1;stroke-linejoin:miter;stroke-miterlimit:10;"/><path d="M842.9158,148.3918 C768.4475,152.2246 656.2255,162.1784 562,188 C536.3752,195.0222 513.7411,204.5178 491.6772,215.2208" fill="none" style="stroke:#000000;stroke-width:1;"/></g><g class="link" data-entity-1="ent0021" data-entity-2="ent0020" data-link-type="dependency" id="lnk53"><polygon fill="#000000" points="940.2686,215.7993,942.2529,206.1524,939.2001,210.9148,934.4377,207.862,940.2686,215.7993" style="stroke:#000000;stroke-width:1;stroke-linejoin:miter;stroke-miterlimit:10;"/><path d="M930.7383,172.2324 C933.7015,185.7782 936.238,197.3736 939.2001,210.9148" fill="none" style="stroke:#000000;stroke-width:1;"/></g><g class="link" data-entity-1="ent0021" data-entity-2="ent0018" data-link-type="dependency" id="lnk54"><polygon fill="#000000" points="846.9487,215.8134,856.1621,212.333,850.5054,212.2991,850.5392,206.6423,846.9487,215.8134" style="stroke:#000000;stroke-width:1;stroke-linejoin:miter;stroke-miterlimit:10;"/><path d="M893.8788,172.1245 C887.8818,177.3129 881.6964,182.7733 876,188 C866.3372,196.866 859.5692,203.3432 850.5054,212.2991" fill="none" style="stroke:#000000;stroke-width:1;"/></g><g class="link" data-entity-1="ent0023" data-entity-2="ent0010" data-link-type="dependency" id="lnk55"><polygon fill="#000000" points="394.7979,309.2506,387.9046,302.2162,390.1496,307.4085,384.9573,309.6535,394.7979,309.2506" style="stroke:#000000;stroke-width:1;stroke-linejoin:miter;stroke-miterlimit:10;"/><path d="M240.0212,270.1589 C245.5953,273.0814 251.3456,275.794 257,278 C311.6561,299.3235 330.453,287.1185 386,306 C388.9,306.9857 387.2004,306.2398 390.1496,307.4085" fill="none" style="stroke:#000000;stroke-width:1;"/></g><g class="link" data-entity-1="ent0010" data-entity-2="ent0002" data-link-type="dependency" id="lnk56"><polygon fill="#000000" points="772.4197,399.4396,765.6433,392.2925,767.8023,397.5211,762.5737,399.6802,772.4197,399.4396" style="stroke:#000000;stroke-width:1;stroke-linejoin:miter;stroke-miterlimit:10;"/><path d="M487.3699,357.721 C496.6593,361.6964 506.4909,365.376 516,368 C622.5003,397.3889 657.4653,363.3129 763,396 C766.1277,396.9687 764.6717,396.2203 767.8023,397.5211" fill="none" style="stroke:#000000;stroke-width:1;"/></g><g class="link" data-entity-1="ent0013" data-entity-2="ent0003" data-link-type="dependency" id="lnk57"><polygon fill="#000000" points="247.6812,309.426,257.5113,310.0331,252.3667,307.6808,254.719,302.5362,247.6812,309.426" style="stroke:#000000;stroke-width:1;stroke-linejoin:miter;stroke-miterlimit:10;"/><path d="M394.6723,258.9683 C357.3433,271.1832 303.5891,289.1208 257,306 C253.95,307.105 255.5139,306.5086 252.3667,307.6808" fill="none" style="stroke:#000000;stroke-width:1;"/></g><g class="link" data-entity-1="ent0023" data-entity-2="ent0001" data-link-type="dependency" id="lnk58"><polygon fill="#000000" points="96.4978,309.3637,106.2369,307.8974,100.7136,306.6754,101.9356,301.1521,96.4978,309.3637" style="stroke:#000000;stroke-width:1;stroke-linejoin:miter;stroke-miterlimit:10;"/><path d="M157.9691,270.1646 C138.4243,282.628 119.4913,294.7012 100.7136,306.6754" fill="none" style="stroke:#000000;stroke-width:1;"/></g><g class="link" data-entity-1="ent0021" data-entity-2="ent0004" data-link-type="dependency" id="lnk59"><polygon fill="#000000" points="1062.8051,219.4086,1058.3425,210.6288,1058.9246,216.2556,1053.2977,216.8377,1062.8051,219.4086" style="stroke:#000000;stroke-width:1;stroke-linejoin:miter;stroke-miterlimit:10;"/><path d="M988.7406,172.0089 C999.0683,176.9206 1009.487,182.3153 1019,188 C1034.2835,197.1331 1046.2083,205.9237 1058.9246,216.2556" fill="none" style="stroke:#000000;stroke-width:1;"/></g><g class="link" data-entity-1="ent0021" data-entity-2="ent0005" data-link-type="dependency" id="lnk60"><polygon fill="#000000" points="1204.3442,219.2822,1200.7039,210.1308,1200.7685,215.7873,1195.112,215.852,1204.3442,219.2822" style="stroke:#000000;stroke-width:1;stroke-linejoin:miter;stroke-miterlimit:10;"/><path d="M1007.2399,149.8403 C1054.4032,154.6204 1113.6532,165.1204 1162,188 C1177.8857,195.5177 1189.3627,204.6393 1200.7685,215.7873" fill="none" style="stroke:#000000;stroke-width:1;"/></g><g class="legend" data-source-line="83"><rect fill="none" height="184.1465" rx="7.5" ry="7.5" style="stroke:#000000;stroke-width:1;" width="416.4922" x="1165.0078" y="555"/><text fill="#000000" font-family="Verdana" font-size="14" font-weight="700" lengthAdjust="spacing" textLength="41.0977" x="1174.793" y="576.0752">Color</text><text fill="#000000" font-family="Verdana" font-size="14" font-weight="700" lengthAdjust="spacing" textLength="66.4385" x="1225.4609" y="576.0752">Meaning</text><rect fill="#FFF3CD" height="17.0146" style="stroke:none;stroke-width:1;" width="50.668" x="1170.0078" y="579.0146"/><text fill="#000000" font-family="Verdana" font-size="14" lengthAdjust="spacing" textLength="4.9219" x="1170.0078" y="593.0898">&#160;</text><text fill="#000000" font-family="Verdana" font-size="14" lengthAdjust="spacing" textLength="90.8564" x="1225.5977" y="593.0898">Infra module</text><rect fill="#D6EAF8" height="17.0146" style="stroke:none;stroke-width:1;" width="50.668" x="1170.0078" y="596.0293"/><text fill="#000000" font-family="Verdana" font-size="14" lengthAdjust="spacing" textLength="4.9219" x="1170.0078" y="610.1045">&#160;</text><text fill="#000000" font-family="Verdana" font-size="14" lengthAdjust="spacing" textLength="134.9072" x="1225.5977" y="610.1045">Foundation module</text><rect fill="#FFE0B2" height="17.0146" style="stroke:none;stroke-width:1;" width="50.668" x="1170.0078" y="613.0439"/><text fill="#000000" font-family="Verdana" font-size="14" lengthAdjust="spacing" textLength="4.9219" x="1170.0078" y="627.1191">&#160;</text><text fill="#000000" font-family="Verdana" font-size="14" lengthAdjust="spacing" textLength="115.3428" x="1225.5977" y="627.1191">Network module</text><rect fill="#E1BEE7" height="17.0146" style="stroke:none;stroke-width:1;" width="50.668" x="1170.0078" y="630.0586"/><text fill="#000000" font-family="Verdana" font-size="14" lengthAdjust="spacing" textLength="4.9219" x="1170.0078" y="644.1338">&#160;</text><text fill="#000000" font-family="Verdana" font-size="14" lengthAdjust="spacing" textLength="87.541" x="1225.5977" y="644.1338">Utils module</text><rect fill="#F5E6CC" height="17.0146" style="stroke:none;stroke-width:1;" width="50.668" x="1170.0078" y="647.0732"/><text fill="#000000" font-family="Verdana" font-size="14" lengthAdjust="spacing" textLength="4.9219" x="1170.0078" y="661.1484">&#160;</text><text fill="#000000" font-family="Verdana" font-size="14" lengthAdjust="spacing" textLength="160.4805" x="1225.5977" y="661.1484">Feature layer template</text><rect fill="#E8F0FE" height="17.0146" style="stroke:none;stroke-width:1;" width="50.668" x="1170.0078" y="664.0879"/><text fill="#000000" font-family="Verdana" font-size="14" lengthAdjust="spacing" textLength="4.9219" x="1170.0078" y="678.1631">&#160;</text><text fill="#000000" font-family="Verdana" font-size="14" lengthAdjust="spacing" textLength="147.4854" x="1225.5977" y="678.1631">External dependency</text><line style="stroke:#000000;stroke-width:1;" x1="1170.0078" x2="1391" y1="562" y2="562"/><line style="stroke:#000000;stroke-width:1;" x1="1170.0078" x2="1391" y1="579.0146" y2="579.0146"/><line style="stroke:#000000;stroke-width:1;" x1="1170.0078" x2="1391" y1="596.0293" y2="596.0293"/><line style="stroke:#000000;stroke-width:1;" x1="1170.0078" x2="1391" y1="613.0439" y2="613.0439"/><line style="stroke:#000000;stroke-width:1;" x1="1170.0078" x2="1391" y1="630.0586" y2="630.0586"/><line style="stroke:#000000;stroke-width:1;" x1="1170.0078" x2="1391" y1="647.0732" y2="647.0732"/><line style="stroke:#000000;stroke-width:1;" x1="1170.0078" x2="1391" y1="664.0879" y2="664.0879"/><line style="stroke:#000000;stroke-width:1;" x1="1170.0078" x2="1391" y1="681.1025" y2="681.1025"/><line style="stroke:#000000;stroke-width:1;" x1="1170.0078" x2="1170.0078" y1="562" y2="681.1025"/><line style="stroke:#000000;stroke-width:1;" x1="1220.6758" x2="1220.6758" y1="562" y2="681.1025"/><line style="stroke:#000000;stroke-width:1;" x1="1391" x2="1391" y1="562" y2="681.1025"/><text fill="#000000" font-family="Verdana" font-size="14" lengthAdjust="spacing" textLength="12.7148" x="1170.0078" y="697.1777">--</text><text fill="#000000" font-family="Verdana" font-size="14" lengthAdjust="spacing" textLength="251.6582" x="1170.0078" y="714.1924">Solid arrows = registry dependency</text><text fill="#000000" font-family="Verdana" font-size="14" lengthAdjust="spacing" textLength="406.4922" x="1170.0078" y="731.207">Dashed arrows = conceptual feature runtime dependency</text></g><?plantuml-src ZLPDRzms4BthLp3hIul2HjgYQGxE0lPQGXTDWg3he8UY41XfLaiibnIeaUr5ql_UeJv9VQnoiRMFRnv7dD4Rli83d83baWiLlCeDpqwSINxM9RBY1CWL3uBYA5JE3JynAHJWEGUc3Hwqiv3eKwuLADpXMG8pa51e9Y484gdBbAt-GCmtKX1ZnNZ1u0NZ0q591R6hy6tqEWfRykvPx76hDnsri83GoIJny_OlaEMBJow5iU0m82BuhiI37x4db1DwCUHFWQE0e-Xp3tAU77a6RBLLUyDNx6l0-dDXgxiyP-4BWYg4LaKbTT9fpFCyXWvcjxS4bXBMQtOLHT6lcuUnobOH7Nq9KMEByLlLl8OD5FHZEQAfGnL09LZYlnTFmEuI54y2prsa93Jc3RgeyL6Zs8k4KyqLsu5v4WbqKifPZ8jwSL6nBxYLg0kz5BD3sYDXVuiqW_xGYWgDdojqKUCH2cIFt12tBnWI66CDBYhKsxDxNlH7K6yUVo5iAlu_fnaZNQgqEgkfZjnejHUPrqb91Nco3s_2k-Zju70WAGtiK9i-hQB2w8G8N1Hur4TGdun-4YcO_cWi6kSDl2ZYVS_KALZcdLJxaKvKkv5op-aZuBCsnz4X3OpB2blZYXldyay_V7t_YwVw6OKiHffzJJx9ic-BVGV7EU6UTlZpVHZ-FYX1xNwUHcD-toTWinCee0ylMsGgrcihu4YrPk_vsLRFlk0_BVQX2cG_rEV-4_j2GQ3I7_-rkpIaXdCL_HQ-sMoiD7tMD3X4Ta2czpwDnAbH4yYnv9APKg6WeLNdTqEBxSOrKZ1EpoH7OoWJ1OA1b0dLh3QWETy4b9EbqP3oaxgvMG--XXc2s-yp5B-VPqX-fywGdAwRa_7xPovffqDcA5qN1C5mlbnVhuSE5BIJeLspOoKOc_vSwAIVjsH_F0QzUNURwIGOsx8RtgH-WJNCoFFdqLkvvdiXJSTBXxbEB7cjDE5UBQ_ka0k4GSDTO3hjFNGrDs6llEvbR52CuTLhKjI_zyrbDxgJVG-Hxc91826pNtLb8sGCtzwHSKXjxCC7u4geZ7spEBjjPkMQdglxMciFxN8z8knoxzP3JctubjDCZo6XDavBg0R1ABuolsgFni6ajLE6SA8REJewrHNJ4kqDqYXomHHoUbDGoRbYNL_JdvsM8YNtC_gvOEywftEuH7hWnG4SLj8xwxx9edLO9ux-rsSR_0y0?></g></svg>