<?plantuml 1.2026.1?><svg xmlns="http://www.w3.org/2000/svg" xmlns:xlink="http://www.w3.org/1999/xlink" contentStyleType="text/css" data-diagram-type="DESCRIPTION" height="780px" preserveAspectRatio="none" style="width:1535px;height:780px;background:#FFFFFF;" version="1.1" viewBox="0 0 1535 780" width="1535px" zoomAndPan="magnify"><defs/><g><!--cluster Infra--><g class="cluster" data-qualified-name="Infra" data-source-line="10" id="ent0005"><path d="M316.5,124.01 L357.3398,124.01 A3.75,3.75 0 0 1 359.8398,126.51 L366.8398,147.0246 L893.5,147.0246 A2.5,2.5 0 0 1 896,149.5246 L896,569.63 A2.5,2.5 0 0 1 893.5,572.13 L316.5,572.13 A2.5,2.5 0 0 1 314,569.63 L314,126.51 A2.5,2.5 0 0 1 316.5,124.01" fill="#FFFFFF" style="stroke:#000000;stroke-width:1;"/><line style="stroke:#000000;stroke-width:1;" x1="314" x2="366.8398" y1="147.0246" y2="147.0246"/><text fill="#000000" font-family="Verdana" font-size="14" font-weight="bold" lengthAdjust="spacing" textLength="39.8398" x="318" y="140.0852">Infra</text></g><!--cluster Foundation--><g class="cluster" data-qualified-name="Foundation" data-source-line="23" id="ent0016"><path d="M13.5,124.01 L103.0527,124.01 A3.75,3.75 0 0 1 105.5527,126.51 L112.5527,147.0246 L287.5,147.0246 A2.5,2.5 0 0 1 290,149.5246 L290,341.57 A2.5,2.5 0 0 1 287.5,344.07 L13.5,344.07 A2.5,2.5 0 0 1 11,341.57 L11,126.51 A2.5,2.5 0 0 1 13.5,124.01" fill="#FFFFFF" style="stroke:#000000;stroke-width:1;"/><line style="stroke:#000000;stroke-width:1;" x1="11" x2="112.5527" y1="147.0246" y2="147.0246"/><text fill="#000000" font-family="Verdana" font-size="14" font-weight="bold" lengthAdjust="spacing" textLength="88.5527" x="15" y="140.0852">Foundation</text></g><!--cluster Network--><g class="cluster" data-qualified-name="Network" data-source-line="29" id="ent0020"><path d="M922.5,124.01 L990.7041,124.01 A3.75,3.75 0 0 1 993.2041,126.51 L1000.2041,147.0246 L1041.5,147.0246 A2.5,2.5 0 0 1 1044,149.5246 L1044,227.54 A2.5,2.5 0 0 1 1041.5,230.04 L922.5,230.04 A2.5,2.5 0 0 1 920,227.54 L920,126.51 A2.5,2.5 0 0 1 922.5,124.01" fill="#FFFFFF" style="stroke:#000000;stroke-width:1;"/><line style="stroke:#000000;stroke-width:1;" x1="920" x2="1000.2041" y1="147.0246" y2="147.0246"/><text fill="#000000" font-family="Verdana" font-size="14" font-weight="bold" lengthAdjust="spacing" textLength="67.2041" x="924" y="140.0852">Network</text></g><!--cluster Utils--><g class="cluster" data-qualified-name="Utils" data-source-line="33" id="ent0022"><path d="M1070.5,124.01 L1107.1221,124.01 A3.75,3.75 0 0 1 1109.6221,126.51 L1116.6221,147.0246 L1485.5,147.0246 A2.5,2.5 0 0 1 1488,149.5246 L1488,227.54 A2.5,2.5 0 0 1 1485.5,230.04 L1070.5,230.04 A2.5,2.5 0 0 1 1068,227.54 L1068,126.51 A2.5,2.5 0 0 1 1070.5,124.01" fill="#FFFFFF" style="stroke:#000000;stroke-width:1;"/><line style="stroke:#000000;stroke-width:1;" x1="1068" x2="1116.6221" y1="147.0246" y2="147.0246"/><text fill="#000000" font-family="Verdana" font-size="14" font-weight="bold" lengthAdjust="spacing" textLength="35.6221" x="1072" y="140.0852">Utils</text></g><!--cluster Feature Layer--><g class="cluster" data-qualified-name="Feature Layer" data-source-line="39" id="ent0026"><path d="M837.5,11 L947.2871,11 A3.75,3.75 0 0 1 949.7871,13.5 L956.7871,34.0146 L1126.5,34.0146 A2.5,2.5 0 0 1 1129,36.5146 L1129,97.51 A2.5,2.5 0 0 1 1126.5,100.01 L837.5,100.01 A2.5,2.5 0 0 1 835,97.51 L835,13.5 A2.5,2.5 0 0 1 837.5,11" fill="#FFFFFF" style="stroke:#000000;stroke-width:1;"/><line style="stroke:#000000;stroke-width:1;" x1="835" x2="956.7871" y1="34.0146" y2="34.0146"/><text fill="#000000" font-family="Verdana" font-size="14" font-weight="bold" lengthAdjust="spacing" textLength="108.7871" x="839" y="27.0752">Feature Layer</text></g><!--entity mod_app_extensions--><g class="entity" data-qualified-name="Infra.mod_app_extensions" data-source-line="11" id="ent0006"><rect fill="#FFF3CD" height="54.0293" rx="2.5" ry="2.5" style="stroke:#000000;stroke-width:1;" width="127.5771" x="525.21" y="502.1"/><text fill="#000000" font-family="Verdana" font-size="14" font-style="italic" lengthAdjust="spacing" textLength="69.9316" x="554.0328" y="526.1752">&#171;module&#187;</text><text fill="#000000" font-family="Verdana" font-size="14" lengthAdjust="spacing" textLength="107.5771" x="535.21" y="543.1898">App Extensions</text></g><!--entity mod_app_intents--><g class="entity" data-qualified-name="Infra.mod_app_intents" data-source-line="12" id="ent0007"><rect fill="#FFF3CD" height="54.0293" rx="2.5" ry="2.5" style="stroke:#000000;stroke-width:1;" width="102.2158" x="329.89" y="274.04"/><text fill="#000000" font-family="Verdana" font-size="14" font-style="italic" lengthAdjust="spacing" textLength="69.9316" x="346.0321" y="298.1152">&#171;module&#187;</text><text fill="#000000" font-family="Verdana" font-size="14" lengthAdjust="spacing" textLength="82.2158" x="339.89" y="315.1298">App Intents</text></g><!--entity mod_init--><g class="entity" data-qualified-name="Infra.mod_init" data-source-line="13" id="ent0008"><rect fill="#FFF3CD" height="54.0293" rx="2.5" ry="2.5" style="stroke:#000000;stroke-width:1;" width="91.9316" x="786.03" y="388.07"/><text fill="#000000" font-family="Verdana" font-size="14" font-style="italic" lengthAdjust="spacing" textLength="69.9316" x="797.03" y="412.1452">&#171;module&#187;</text><text fill="#000000" font-family="Verdana" font-size="14" lengthAdjust="spacing" textLength="24.1104" x="819.9406" y="429.1598">Init</text></g><!--entity mod_ioc--><g class="entity" data-qualified-name="Infra.mod_ioc" data-source-line="14" id="ent0009"><rect fill="#FFF3CD" height="54.0293" rx="2.5" ry="2.5" style="stroke:#000000;stroke-width:1;" width="91.9316" x="788.03" y="274.04"/><text fill="#000000" font-family="Verdana" font-size="14" font-style="italic" lengthAdjust="spacing" textLength="69.9316" x="799.03" y="298.1152">&#171;module&#187;</text><text fill="#000000" font-family="Verdana" font-size="14" lengthAdjust="spacing" textLength="24.165" x="821.9133" y="315.1298">IoC</text></g><!--entity mod_live_activity--><g class="entity" data-qualified-name="Infra.mod_live_activity" data-source-line="15" id="ent0010"><rect fill="#FFF3CD" height="54.0293" rx="2.5" ry="2.5" style="stroke:#000000;stroke-width:1;" width="105.333" x="467.33" y="274.04"/><text fill="#000000" font-family="Verdana" font-size="14" font-style="italic" lengthAdjust="spacing" textLength="69.9316" x="485.0307" y="298.1152">&#171;module&#187;</text><text fill="#000000" font-family="Verdana" font-size="14" lengthAdjust="spacing" textLength="85.333" x="477.33" y="315.1298">Live Activity</text></g><!--entity mod_notification_service--><g class="entity" data-qualified-name="Infra.mod_notification_service" data-source-line="16" id="ent0011"><rect fill="#FFF3CD" height="54.0293" rx="2.5" ry="2.5" style="stroke:#000000;stroke-width:1;" width="156.0762" x="594.96" y="388.07"/><text fill="#000000" font-family="Verdana" font-size="14" font-style="italic" lengthAdjust="spacing" textLength="69.9316" x="638.0323" y="412.1452">&#171;module&#187;</text><text fill="#000000" font-family="Verdana" font-size="14" lengthAdjust="spacing" textLength="136.0762" x="604.96" y="429.1598">Notification Service</text></g><!--entity mod_relux--><g class="entity" data-qualified-name="Infra.mod_relux" data-source-line="17" id="ent0012"><rect fill="#FFF3CD" height="54.0293" rx="2.5" ry="2.5" style="stroke:#000000;stroke-width:1;" width="91.9316" x="788.03" y="160.01"/><text fill="#000000" font-family="Verdana" font-size="14" font-style="italic" lengthAdjust="spacing" textLength="69.9316" x="799.03" y="184.0852">&#171;module&#187;</text><text fill="#000000" font-family="Verdana" font-size="14" lengthAdjust="spacing" textLength="39.0605" x="814.4655" y="201.0998">Relux</text></g><!--entity mod_static_widget--><g class="entity" data-qualified-name="Infra.mod_static_widget" data-source-line="18" id="ent0013"><rect fill="#FFF3CD" height="54.0293" rx="2.5" ry="2.5" style="stroke:#000000;stroke-width:1;" width="114.0557" x="440.97" y="160.01"/><text fill="#000000" font-family="Verdana" font-size="14" font-style="italic" lengthAdjust="spacing" textLength="69.9316" x="463.032" y="184.0852">&#171;module&#187;</text><text fill="#000000" font-family="Verdana" font-size="14" lengthAdjust="spacing" textLength="94.0557" x="450.97" y="201.0998">Static Widget</text></g><!--entity mod_test_targets--><g class="entity" data-qualified-name="Infra.mod_test_targets" data-source-line="19" id="ent0014"><rect fill="#FFF3CD" height="54.0293" rx="2.5" ry="2.5" style="stroke:#000000;stroke-width:1;" width="107.582" x="645.21" y="274.04"/><text fill="#000000" font-family="Verdana" font-size="14" font-style="italic" lengthAdjust="spacing" textLength="69.9316" x="664.0352" y="298.1152">&#171;module&#187;</text><text fill="#000000" font-family="Verdana" font-size="14" lengthAdjust="spacing" textLength="87.582" x="655.21" y="315.1298">Test Targets</text></g><!--entity mod_widget_base--><g class="entity" data-qualified-name="Infra.mod_widget_base" data-source-line="20" id="ent0015"><rect fill="#FFF3CD" height="54.0293" rx="2.5" ry="2.5" style="stroke:#000000;stroke-width:1;" width="107.5479" x="452.23" y="388.07"/><text fill="#000000" font-family="Verdana" font-size="14" font-style="italic" lengthAdjust="spacing" textLength="69.9316" x="471.0381" y="412.1452">&#171;module&#187;</text><text fill="#000000" font-family="Verdana" font-size="14" lengthAdjust="spacing" textLength="87.5479" x="462.23" y="429.1598">Widget Base</text></g><!--entity mod_app_config--><g class="entity" data-qualified-name="Foundation.mod_app_config" data-source-line="24" id="ent0017"><rect fill="#D6EAF8" height="54.0293" rx="2.5" ry="2.5" style="stroke:#000000;stroke-width:1;" width="91.9316" x="27.03" y="160.01"/><text fill="#000000" font-family="Verdana" font-size="14" font-style="italic" lengthAdjust="spacing" textLength="69.9316" x="38.03" y="184.0852">&#171;module&#187;</text><text fill="#000000" font-family="Verdana" font-size="14" lengthAdjust="spacing" textLength="71.6338" x="37.1789" y="201.0998">AppConfig</text></g><!--entity mod_secure_store--><g class="entity" data-qualified-name="Foundation.mod_secure_store" data-source-line="25" id="ent0018"><rect fill="#D6EAF8" height="54.0293" rx="2.5" ry="2.5" style="stroke:#000000;stroke-width:1;" width="106.2764" x="26.86" y="274.04"/><text fill="#000000" font-family="Verdana" font-size="14" font-style="italic" lengthAdjust="spacing" textLength="69.9316" x="45.0324" y="298.1152">&#171;module&#187;</text><text fill="#000000" font-family="Verdana" font-size="14" lengthAdjust="spacing" textLength="86.2764" x="36.86" y="315.1298">SecureStore</text></g><!--entity mod_token_provider--><g class="entity" data-qualified-name="Foundation.mod_token_provider" data-source-line="26" id="ent0019"><rect fill="#D6EAF8" height="54.0293" rx="2.5" ry="2.5" style="stroke:#000000;stroke-width:1;" width="120.6865" x="153.66" y="160.01"/><text fill="#000000" font-family="Verdana" font-size="14" font-style="italic" lengthAdjust="spacing" textLength="69.9316" x="179.0374" y="184.0852">&#171;module&#187;</text><text fill="#000000" font-family="Verdana" font-size="14" lengthAdjust="spacing" textLength="100.6865" x="163.66" y="201.0998">TokenProvider</text></g><!--entity mod_http_client--><g class="entity" data-qualified-name="Network.mod_http_client" data-source-line="30" id="ent0021"><rect fill="#FFE0B2" height="54.0293" rx="2.5" ry="2.5" style="stroke:#000000;stroke-width:1;" width="91.9316" x="936.03" y="160.01"/><text fill="#000000" font-family="Verdana" font-size="14" font-style="italic" lengthAdjust="spacing" textLength="69.9316" x="947.03" y="184.0852">&#171;module&#187;</text><text fill="#000000" font-family="Verdana" font-size="14" lengthAdjust="spacing" textLength="70.4512" x="946.7702" y="201.0998">HttpClient</text></g><!--entity mod_foundation_plus--><g class="entity" data-qualified-name="Utils.mod_foundation_plus" data-source-line="34" id="ent0023"><rect fill="#E1BEE7" height="54.0293" rx="2.5" ry="2.5" style="stroke:#000000;stroke-width:1;" width="126.5449" x="1083.73" y="160.01"/><text fill="#000000" font-family="Verdana" font-size="14" font-style="italic" lengthAdjust="spacing" textLength="69.9316" x="1112.0366" y="184.0852">&#171;module&#187;</text><text fill="#000000" font-family="Verdana" font-size="14" lengthAdjust="spacing" textLength="106.5449" x="1093.73" y="201.0998">FoundationPlus</text></g><!--entity mod_swiftui_plus--><g class="entity" data-qualified-name="Utils.mod_swiftui_plus" data-source-line="35" id="ent0024"><rect fill="#E1BEE7" height="54.0293" rx="2.5" ry="2.5" style="stroke:#000000;stroke-width:1;" width="99.8848" x="1245.06" y="160.01"/><text fill="#000000" font-family="Verdana" font-size="14" font-style="italic" lengthAdjust="spacing" textLength="69.9316" x="1260.0366" y="184.0852">&#171;module&#187;</text><text fill="#000000" font-family="Verdana" font-size="14" lengthAdjust="spacing" textLength="79.8848" x="1255.06" y="201.0998">SwiftUIPlus</text></g><!--entity mod_utilities--><g class="entity" data-qualified-name="Utils.mod_utilities" data-source-line="36" id="ent0025"><rect fill="#E1BEE7" height="54.0293" rx="2.5" ry="2.5" style="stroke:#000000;stroke-width:1;" width="91.9316" x="1380.03" y="160.01"/><text fill="#000000" font-family="Verdana" font-size="14" font-style="italic" lengthAdjust="spacing" textLength="69.9316" x="1391.03" y="184.0852">&#171;module&#187;</text><text fill="#000000" font-family="Verdana" font-size="14" lengthAdjust="spacing" textLength="52.2813" x="1399.8552" y="201.0998">Utilities</text></g><!--entity FeatureModule--><g class="entity" data-qualified-name="Feature Layer.FeatureModule" data-source-line="40" id="ent0027"><rect fill="#F5E6CC" height="37.0146" rx="2.5" ry="2.5" style="stroke:#000000;stroke-width:1;" width="261.3359" x="851.33" y="47"/><text fill="#000000" font-family="Verdana" font-size="14" lengthAdjust="spacing" textLength="241.3359" x="861.33" y="71.0752">Feature Module (relux + backend)</text></g><!--entity ext_httpclient--><g class="entity" data-qualified-name="ext_httpclient" data-source-line="6" id="ent0002"><path d="M1078.7721,286.4597 C1082.5367,278.1949 1088.6953,279.1727 1093.3953,285.5238 C1097.1885,278.5438 1101.5817,277.1873 1106.9276,284.0004 C1109.7822,275.9109 1113.9665,275.2511 1120.0324,280.9478 C1126.1133,275.4346 1132.1562,275.9129 1135.9023,283.7278 C1140.812,277.9808 1145.6993,277.4886 1149.4824,284.8913 C1154.6882,279.4871 1159.6459,278.1835 1163.4939,286.2986 C1171.5827,287.4482 1175.422,294.9978 1170.3766,301.9305 C1176.4294,308.89 1172.4414,316.0128 1164.3152,317.4258 C1160.4653,326.7362 1154.7714,326.1257 1148.2254,320.29 C1145.3193,326.0165 1139.0651,326.8342 1135.1185,321.5259 C1131.666,328.9615 1125.7106,329.8294 1120.2136,323.7867 C1115.2001,328.2451 1110.3885,328.0122 1107.34,321.4842 C1101.6775,327.905 1096.1224,328.0289 1091.9287,319.9257 C1086.6197,325.6118 1081.9343,323.91 1078.9294,317.4581 C1070.0693,314.4241 1068.1579,308.1915 1074.5587,301.084 C1069.2494,295.2216 1069.8452,288.2204 1078.7721,286.4597" fill="#E8F0FE" style="stroke:#000000;stroke-width:1;"/><text fill="#000000" font-family="Verdana" font-size="14" lengthAdjust="spacing" textLength="70.4512" x="1084.77" y="306.6252">HttpClient</text></g><!--entity ext_swiftioc--><g class="entity" data-qualified-name="ext_swiftioc" data-source-line="7" id="ent0003"><path d="M922.3312,400.9209 C924.4787,393.4358 931.0874,392.4793 935.5677,398.6617 C938.004,392.0026 944.0345,391.8398 947.5804,397.5872 C949.7399,391.4142 953.3493,391.0348 958.2837,394.5082 C963.3189,388.746 966.7672,390.5119 970.3042,396.0955 C975.6989,391.6545 980.2952,392.7433 983.2182,399.062 C988.4553,392.484 992.9122,393.1226 996.5473,400.5831 C1006.117,402.0177 1009.7022,406.6608 1005.1892,415.993 C1009.7208,423.5663 1005.0392,430.9083 996.6459,431.2389 C992.5371,438.0307 988.0012,438.2743 982.686,432.5887 C978.4259,438.6662 974.1994,437.9832 971.0053,431.5903 C968.5843,438.2129 964.5904,438.1846 959.8704,433.9477 C955.9197,440.6382 949.5588,440.6131 946.4548,433.1454 C942.7406,437.9764 936.7477,438.5704 934.1896,431.9114 C931.1399,437.1428 925.6418,436.4922 922.6488,431.8452 C913.2086,431.2693 909.4753,425.4316 914.3356,416.9007 C908.0114,407.8644 911.2433,401.245 922.3312,400.9209" fill="#E8F0FE" style="stroke:#000000;stroke-width:1;"/><text fill="#000000" font-family="Verdana" font-size="14" lengthAdjust="spacing" textLength="59.4727" x="928.26" y="420.6552">SwiftIoC</text></g><!--entity ext_swiftuirelux--><g class="entity" data-qualified-name="ext_swiftuirelux" data-source-line="8" id="ent0004"><path d="M923.6761,286.8038 C926.4959,281.1315 932.0467,279.0242 936.5113,284.9898 C940.7833,279.3692 945.4627,278.9047 949.7197,285.0067 C953.0305,277.5789 957.6006,277.1293 963.1646,282.6709 C966.8648,275.1197 971.5844,275.3731 976.9454,280.924 C981.3207,276.042 987.7273,277.0561 990.2322,283.1817 C994.3778,278.0755 1000.0624,277.5777 1002.9169,284.5388 C1006.952,279.0394 1011.6289,277.7861 1015.6632,284.5396 C1020.9502,279.5257 1026.1202,279.2258 1029.2612,286.8489 C1037.3059,290.1587 1037.9484,296.942 1030.4831,301.5417 C1037.8305,306.7525 1036.9782,313.2964 1029.45,317.547 C1025.5909,324.823 1020.6213,326.1521 1015.2096,319.0889 C1012.5501,325.5944 1007.5604,326.6363 1003.1167,320.8431 C1001.3657,328.9915 994.5031,329.765 989.334,324.305 C986.6757,330.9021 981.4839,331.0552 977.0147,326.264 C971.0037,333.1507 964.8653,330.7607 962.3634,322.801 C957.8198,328.5962 953.6154,327.3339 950.1555,321.6487 C945.6728,328.006 939.0475,327.6733 936.2807,319.9569 C932.2613,325.128 926.6903,324.1423 924.9405,317.7342 C916.5194,316.1097 911.7845,310.472 918.3012,302.3858 C912.0406,294.8603 914.0068,288.8344 923.6761,286.8038" fill="#E8F0FE" style="stroke:#000000;stroke-width:1;"/><text fill="#000000" font-family="Verdana" font-size="14" lengthAdjust="spacing" textLength="90.5078" x="929.75" y="306.6252">SwiftUIRelux</text></g><g class="entity" data-qualified-name="GMN28" data-source-line="44" id="ent0029"><path d="M1147.64,44.71 L1147.64,61.13 L1113.04,65.13 L1147.64,69.13 L1147.64,86.3086 A0,0 0 0 0 1147.64,86.3086 L1528.3617,86.3086 A0,0 0 0 0 1528.3617,86.3086 L1528.3617,54.71 L1518.3617,44.71 L1147.64,44.71 A0,0 0 0 0 1147.64,44.71" fill="#FFFFFF" style="stroke:#000000;stroke-width:1;"/><path d="M1518.3617,44.71 L1518.3617,54.71 L1528.3617,54.71 L1518.3617,44.71" fill="#FFFFFF" style="stroke:#000000;stroke-width:1;"/><text fill="#000000" font-family="Verdana" font-size="13" lengthAdjust="spacing" textLength="185.6563" x="1153.64" y="62.7798">Conceptual runtime module.</text><text fill="#000000" font-family="Verdana" font-size="13" lengthAdjust="spacing" textLength="359.7217" x="1153.64" y="78.5791">Feature modules are not registered in module registry.</text></g><!--link FeatureModule to mod_app_config--><g class="link" data-entity-1="ent0027" data-entity-2="ent0017" data-link-type="dependency" data-source-line="48" id="lnk31"><path d="M851.28,56.13 C599.74,56.13 73,56.13 73,56.13 C73,56.13 73,115.2 73,153.59" fill="none" id="FeatureModule-to-mod_app_config" style="stroke:#000000;stroke-width:1;stroke-dasharray:7,7;"/><polygon fill="#000000" points="73,159.59,77,150.59,73,154.59,69,150.59,73,159.59" style="stroke:#000000;stroke-width:1;"/></g><!--link FeatureModule to mod_secure_store--><g class="link" data-entity-1="ent0027" data-entity-2="ent0018" data-link-type="dependency" data-source-line="49" id="lnk32"><path d="M851.07,65.13 C611.29,65.13 126.05,65.13 126.05,65.13 C126.05,65.13 126.05,206.02 126.05,267.99" fill="none" id="FeatureModule-to-mod_secure_store" style="stroke:#000000;stroke-width:1;stroke-dasharray:7,7;"/><polygon fill="#000000" points="126.05,273.99,130.05,264.99,126.05,268.99,122.05,264.99,126.05,273.99" style="stroke:#000000;stroke-width:1;"/></g><!--link FeatureModule to mod_token_provider--><g class="link" data-entity-1="ent0027" data-entity-2="ent0019" data-link-type="dependency" data-source-line="50" id="lnk33"><path d="M850.85,75.13 C631.5,75.13 214,75.13 214,75.13 C214,75.13 214,120.53 214,153.65" fill="none" id="FeatureModule-to-mod_token_provider" style="stroke:#000000;stroke-width:1;stroke-dasharray:7,7;"/><polygon fill="#000000" points="214,159.65,218,150.65,214,154.65,210,150.65,214,159.65" style="stroke:#000000;stroke-width:1;"/></g><!--link FeatureModule to mod_http_client--><g class="link" data-entity-1="ent0027" data-entity-2="ent0021" data-link-type="dependency" data-source-line="51" id="lnk34"><path d="M982,84.49 C982,104.65 982,130.7 982,153.6" fill="none" id="FeatureModule-to-mod_http_client" style="stroke:#000000;stroke-width:1;stroke-dasharray:7,7;"/><polygon fill="#000000" points="982,159.6,986,150.6,982,154.6,978,150.6,982,159.6" style="stroke:#000000;stroke-width:1;"/></g><!--link FeatureModule to mod_foundation_plus--><g class="link" data-entity-1="ent0027" data-entity-2="ent0023" data-link-type="dependency" data-source-line="52" id="lnk35"><path d="M1090.96,84.49 C1090.96,104.65 1090.96,130.7 1090.96,153.6" fill="none" id="FeatureModule-to-mod_foundation_plus" style="stroke:#000000;stroke-width:1;stroke-dasharray:7,7;"/><polygon fill="#000000" points="1090.96,159.6,1094.96,150.6,1090.96,154.6,1086.96,150.6,1090.96,159.6" style="stroke:#000000;stroke-width:1;"/></g><!--link FeatureModule to mod_swiftui_plus--><g class="link" data-entity-1="ent0027" data-entity-2="ent0024" data-link-type="dependency" data-source-line="53" id="lnk36"><path d="M1098.2,84.16 C1098.2,104.79 1098.2,135.13 1098.2,135.13 C1098.2,135.13 1295,135.13 1295,135.13 C1295,135.13 1295,141.11 1295,153.56" fill="none" id="FeatureModule-to-mod_swiftui_plus" style="stroke:#000000;stroke-width:1;stroke-dasharray:7,7;"/><polygon fill="#000000" points="1295,159.56,1299,150.56,1295,154.56,1291,150.56,1295,159.56" style="stroke:#000000;stroke-width:1;"/></g><!--link FeatureModule to mod_utilities--><g class="link" data-entity-1="ent0027" data-entity-2="ent0025" data-link-type="dependency" data-source-line="54" id="lnk37"><path d="M1105.43,84.33 C1105.43,96.89 1105.43,111.13 1105.43,111.13 C1105.43,111.13 1426,111.13 1426,111.13 C1426,111.13 1426,131.89 1426,153.63" fill="none" id="FeatureModule-to-mod_utilities" style="stroke:#000000;stroke-width:1;stroke-dasharray:7,7;"/><polygon fill="#000000" points="1426,159.63,1430,150.63,1426,154.63,1422,150.63,1426,159.63" style="stroke:#000000;stroke-width:1;"/></g><!--link mod_app_intents to mod_widget_base--><g class="link" data-entity-1="ent0007" data-entity-2="ent0015" data-link-type="dependency" data-source-line="56" id="lnk38"><path d="M432.29,310.13 C446.09,310.13 457.26,310.13 457.26,310.13 C457.26,310.13 457.26,350.69 457.26,381.78" fill="none" id="mod_app_intents-to-mod_widget_base" style="stroke:#000000;stroke-width:1;"/><polygon fill="#000000" points="457.26,387.78,461.26,378.78,457.26,382.78,453.26,378.78,457.26,387.78" style="stroke:#000000;stroke-width:1;"/></g><!--link mod_ioc to mod_init--><g class="link" data-entity-1="ent0009" data-entity-2="ent0008" data-link-type="dependency" data-source-line="57" id="lnk39"><path d="M833,328.37 C833,346.29 833,363.64 833,381.6" fill="none" id="mod_ioc-to-mod_init" style="stroke:#000000;stroke-width:1;"/><polygon fill="#000000" points="833,387.6,837,378.6,833,382.6,829,378.6,833,387.6" style="stroke:#000000;stroke-width:1;"/></g><!--link mod_live_activity to mod_widget_base--><g class="link" data-entity-1="ent0010" data-entity-2="ent0015" data-link-type="dependency" data-source-line="58" id="lnk40"><path d="M513.55,328.37 C513.55,346.29 513.55,363.64 513.55,381.6" fill="none" id="mod_live_activity-to-mod_widget_base" style="stroke:#000000;stroke-width:1;"/><polygon fill="#000000" points="513.55,387.6,517.55,378.6,513.55,382.6,509.55,378.6,513.55,387.6" style="stroke:#000000;stroke-width:1;"/></g><!--link mod_notification_service to mod_app_extensions--><g class="link" data-entity-1="ent0011" data-entity-2="ent0006" data-link-type="dependency" data-source-line="59" id="lnk41"><path d="M623.88,442.4 C623.88,460.32 623.88,477.67 623.88,495.63" fill="none" id="mod_notification_service-to-mod_app_extensions" style="stroke:#000000;stroke-width:1;"/><polygon fill="#000000" points="623.88,501.63,627.88,492.63,623.88,496.63,619.88,492.63,623.88,501.63" style="stroke:#000000;stroke-width:1;"/></g><!--link mod_relux to mod_ioc--><g class="link" data-entity-1="ent0012" data-entity-2="ent0009" data-link-type="dependency" data-source-line="60" id="lnk42"><path d="M849.32,214.34 C849.32,232.26 849.32,249.62 849.32,267.57" fill="none" id="mod_relux-to-mod_ioc" style="stroke:#000000;stroke-width:1;"/><polygon fill="#000000" points="849.32,273.57,853.32,264.57,849.32,268.57,845.32,264.57,849.32,273.57" style="stroke:#000000;stroke-width:1;"/></g><!--link mod_static_widget to mod_app_intents--><g class="link" data-entity-1="ent0013" data-entity-2="ent0007" data-link-type="dependency" data-source-line="61" id="lnk43"><path d="M446.6,214.37 C446.6,245.51 446.6,292.13 446.6,292.13 C446.6,292.13 446.66,292.13 438.37,292.13" fill="none" id="mod_static_widget-to-mod_app_intents" style="stroke:#000000;stroke-width:1;"/><polygon fill="#000000" points="432.37,292.13,441.37,296.13,437.37,292.13,441.37,288.13,432.37,292.13" style="stroke:#000000;stroke-width:1;"/></g><!--link mod_static_widget to mod_widget_base--><g class="link" data-entity-1="ent0013" data-entity-2="ent0015" data-link-type="dependency" data-source-line="62" id="lnk44"><path d="M462.3,214.54 C462.3,258.49 462.3,338.04 462.3,381.83" fill="none" id="mod_static_widget-to-mod_widget_base" style="stroke:#000000;stroke-width:1;"/><polygon fill="#000000" points="462.3,387.83,466.3,378.83,462.3,382.83,458.3,378.83,462.3,387.83" style="stroke:#000000;stroke-width:1;"/></g><!--link mod_test_targets to mod_init--><g class="link" data-entity-1="ent0014" data-entity-2="ent0008" data-link-type="dependency" data-source-line="63" id="lnk45"><path d="M753.08,301.13 C762.54,301.13 769.41,301.13 769.41,301.13 C769.41,301.13 769.41,415.13 769.41,415.13 C769.41,415.13 770.48,415.13 779.86,415.13" fill="none" id="mod_test_targets-to-mod_init" style="stroke:#000000;stroke-width:1;"/><polygon fill="#000000" points="785.86,415.13,776.86,411.13,780.86,415.13,776.86,419.13,785.86,415.13" style="stroke:#000000;stroke-width:1;"/></g><!--link mod_widget_base to mod_app_extensions--><g class="link" data-entity-1="ent0015" data-entity-2="ent0006" data-link-type="dependency" data-source-line="64" id="lnk46"><path d="M542.49,442.4 C542.49,460.32 542.49,477.67 542.49,495.63" fill="none" id="mod_widget_base-to-mod_app_extensions" style="stroke:#000000;stroke-width:1;"/><polygon fill="#000000" points="542.49,501.63,546.49,492.63,542.49,496.63,538.49,492.63,542.49,501.63" style="stroke:#000000;stroke-width:1;"/></g><!--link mod_app_config to mod_ioc--><g class="link" data-entity-1="ent0017" data-entity-2="ent0009" data-link-type="dependency" data-source-line="65" id="lnk47"><path d="M88.32,214.24 C88.32,228.95 88.32,244.13 88.32,244.13 C88.32,244.13 818.68,244.13 818.68,244.13 C818.68,244.13 818.68,253.04 818.68,267.59" fill="none" id="mod_app_config-to-mod_ioc" style="stroke:#000000;stroke-width:1;"/><polygon fill="#000000" points="818.68,273.59,822.68,264.59,818.68,268.59,814.68,264.59,818.68,273.59" style="stroke:#000000;stroke-width:1;"/></g><!--link mod_app_config to mod_secure_store--><g class="link" data-entity-1="ent0017" data-entity-2="ent0018" data-link-type="dependency" data-source-line="66" id="lnk48"><path d="M57.68,214.34 C57.68,232.26 57.68,249.62 57.68,267.57" fill="none" id="mod_app_config-to-mod_secure_store" style="stroke:#000000;stroke-width:1;"/><polygon fill="#000000" points="57.68,273.57,61.68,264.57,57.68,268.57,53.68,264.57,57.68,273.57" style="stroke:#000000;stroke-width:1;"/></g><!--link mod_http_client to mod_ioc--><g class="link" data-entity-1="ent0021" data-entity-2="ent0009" data-link-type="dependency" data-source-line="67" id="lnk49"><path d="M935.73,178.13 C913.27,178.13 891.07,178.13 891.07,178.13 C891.07,178.13 891.07,293.13 891.07,293.13 C891.07,293.13 892.68,293.13 886.33,293.13" fill="none" id="mod_http_client-to-mod_ioc" style="stroke:#000000;stroke-width:1;"/><polygon fill="#000000" points="880.33,293.13,889.33,297.13,885.33,293.13,889.33,289.13,880.33,293.13" style="stroke:#000000;stroke-width:1;"/></g><!--link mod_ioc to ext_swiftioc--><g class="link" data-entity-1="ent0009" data-entity-2="ent0003" data-link-type="dependency" data-source-line="69" id="lnk50"><path d="M880.22,309.13 C892.38,309.13 902.16,309.13 902.16,309.13 C902.16,309.13 902.16,415.13 902.16,415.13 C902.16,415.13 900.58,415.13 906.93,415.13" fill="none" id="mod_ioc-to-ext_swiftioc" style="stroke:#000000;stroke-width:1;"/><polygon fill="#000000" points="912.93,415.13,903.93,411.13,907.93,415.13,903.93,419.13,912.93,415.13" style="stroke:#000000;stroke-width:1;"/></g><!--link mod_relux to ext_swiftuirelux--><g class="link" data-entity-1="ent0012" data-entity-2="ent0004" data-link-type="dependency" data-source-line="70" id="lnk51"><path d="M880.23,196.13 C902.9,196.13 925.39,196.13 925.39,196.13 C925.39,196.13 925.39,240.29 925.39,271.25" fill="none" id="mod_relux-to-ext_swiftuirelux" style="stroke:#000000;stroke-width:1;"/><polygon fill="#000000" points="925.39,277.25,929.39,268.25,925.39,272.25,921.39,268.25,925.39,277.25" style="stroke:#000000;stroke-width:1;"/></g><!--link mod_http_client to ext_httpclient--><g class="link" data-entity-1="ent0021" data-entity-2="ent0002" data-link-type="dependency" data-source-line="71" id="lnk52"><path d="M1028.27,187.13 C1052.32,187.13 1076.75,187.13 1076.75,187.13 C1076.75,187.13 1076.75,237.77 1076.75,271.17" fill="none" id="mod_http_client-to-ext_httpclient" style="stroke:#000000;stroke-width:1;"/><polygon fill="#000000" points="1076.75,277.17,1080.75,268.17,1076.75,272.17,1072.75,268.17,1076.75,277.17" style="stroke:#000000;stroke-width:1;"/></g><g class="legend" data-source-line="73"><rect fill="none" height="184.1465" rx="7.5" ry="7.5" style="stroke:#000000;stroke-width:1;" width="416.4922" x="1099.8695" y="583.13"/><text fill="#000000" font-family="Verdana" font-size="14" font-weight="bold" lengthAdjust="spacing" textLength="41.0977" x="1109.6546" y="604.2052">Color</text><text fill="#000000" font-family="Verdana" font-size="14" font-weight="bold" lengthAdjust="spacing" textLength="66.4385" x="1160.3226" y="604.2052">Meaning</text><rect fill="#FFF3CD" height="17.0146" style="stroke:none;stroke-width:1;" width="50.668" x="1104.8695" y="607.1446"/><text fill="#000000" font-family="Verdana" font-size="14" lengthAdjust="spacing" textLength="4.9219" x="1104.8695" y="621.2198">&#160;</text><text fill="#000000" font-family="Verdana" font-size="14" lengthAdjust="spacing" textLength="90.8564" x="1160.4593" y="621.2198">Infra module</text><rect fill="#D6EAF8" height="17.0146" style="stroke:none;stroke-width:1;" width="50.668" x="1104.8695" y="624.1593"/><text fill="#000000" font-family="Verdana" font-size="14" lengthAdjust="spacing" textLength="4.9219" x="1104.8695" y="638.2345">&#160;</text><text fill="#000000" font-family="Verdana" font-size="14" lengthAdjust="spacing" textLength="134.9072" x="1160.4593" y="638.2345">Foundation module</text><rect fill="#FFE0B2" height="17.0146" style="stroke:none;stroke-width:1;" width="50.668" x="1104.8695" y="641.1739"/><text fill="#000000" font-family="Verdana" font-size="14" lengthAdjust="spacing" textLength="4.9219" x="1104.8695" y="655.2491">&#160;</text><text fill="#000000" font-family="Verdana" font-size="14" lengthAdjust="spacing" textLength="115.3428" x="1160.4593" y="655.2491">Network module</text><rect fill="#E1BEE7" height="17.0146" style="stroke:none;stroke-width:1;" width="50.668" x="1104.8695" y="658.1886"/><text fill="#000000" font-family="Verdana" font-size="14" lengthAdjust="spacing" textLength="4.9219" x="1104.8695" y="672.2638">&#160;</text><text fill="#000000" font-family="Verdana" font-size="14" lengthAdjust="spacing" textLength="87.541" x="1160.4593" y="672.2638">Utils module</text><rect fill="#F5E6CC" height="17.0146" style="stroke:none;stroke-width:1;" width="50.668" x="1104.8695" y="675.2032"/><text fill="#000000" font-family="Verdana" font-size="14" lengthAdjust="spacing" textLength="4.9219" x="1104.8695" y="689.2784">&#160;</text><text fill="#000000" font-family="Verdana" font-size="14" lengthAdjust="spacing" textLength="160.4805" x="1160.4593" y="689.2784">Feature layer template</text><rect fill="#E8F0FE" height="17.0146" style="stroke:none;stroke-width:1;" width="50.668" x="1104.8695" y="692.2179"/><text fill="#000000" font-family="Verdana" font-size="14" lengthAdjust="spacing" textLength="4.9219" x="1104.8695" y="706.2931">&#160;</text><text fill="#000000" font-family="Verdana" font-size="14" lengthAdjust="spacing" textLength="147.4854" x="1160.4593" y="706.2931">External dependency</text><line style="stroke:#000000;stroke-width:1;" x1="1104.8695" x2="1325.8617" y1="590.13" y2="590.13"/><line style="stroke:#000000;stroke-width:1;" x1="1104.8695" x2="1325.8617" y1="607.1446" y2="607.1446"/><line style="stroke:#000000;stroke-width:1;" x1="1104.8695" x2="1325.8617" y1="624.1593" y2="624.1593"/><line style="stroke:#000000;stroke-width:1;" x1="1104.8695" x2="1325.8617" y1="641.1739" y2="641.1739"/><line style="stroke:#000000;stroke-width:1;" x1="1104.8695" x2="1325.8617" y1="658.1886" y2="658.1886"/><line style="stroke:#000000;stroke-width:1;" x1="1104.8695" x2="1325.8617" y1="675.2032" y2="675.2032"/><line style="stroke:#000000;stroke-width:1;" x1="1104.8695" x2="1325.8617" y1="692.2179" y2="692.2179"/><line style="stroke:#000000;stroke-width:1;" x1="1104.8695" x2="1325.8617" y1="709.2325" y2="709.2325"/><line style="stroke:#000000;stroke-width:1;" x1="1104.8695" x2="1104.8695" y1="590.13" y2="709.2325"/><line style="stroke:#000000;stroke-width:1;" x1="1155.5375" x2="1155.5375" y1="590.13" y2="709.2325"/><line style="stroke:#000000;stroke-width:1;" x1="1325.8617" x2="1325.8617" y1="590.13" y2="709.2325"/><text fill="#000000" font-family="Verdana" font-size="14" lengthAdjust="spacing" textLength="12.7148" x="1104.8695" y="725.3077">--</text><text fill="#000000" font-family="Verdana" font-size="14" lengthAdjust="spacing" textLength="251.6582" x="1104.8695" y="742.3224">Solid arrows = registry dependency</text><text fill="#000000" font-family="Verdana" font-size="14" lengthAdjust="spacing" textLength="406.4922" x="1104.8695" y="759.337">Dashed arrows = conceptual feature runtime dependency</text></g><?plantuml-src ZLPTJzim57tFh_3AowQf5TiqnWDKWf9ebG2X5RI7QOfCSfjQJUt8SLggiV--Q-VBJbEo5mZdddjyVNrzy3krWWsGBAMCUrw-PZoZacv8oZYeVGP4IBKILY0Icqnmu6gXzYaG2P6YF4d1yw9K534PVLSgcwKC6ID2Sm8lAbmX51c8dFZdmMdWr-J5ZYtLNCmQQgu19g9UujFy1wJ5YqikcDHWa-1bD5hJ1CXepfUIZiWVZxHLaz5LbX7_HG7FcU2vqTg8EAHP5a83auiB18iKfbDo4WJ1bzdDeSgS8rsv4gp41lFddAacaU4VmnbLbqm2DcY8VyksGAuYnRPCxPlC5D6GLkYWnhrGRCaYYYV2oGBabaNGI74h6EPbS52nFK0jKPxSKCv2uHeH-SdY1DgcvGODTmOTr7Y4N957Af7R7fX2C5GbEAXGBa-kQTwse5myV4QiB_-lDOo1A7XiUjKtaJF1bonn9Yaoa2DxS-PV1UUTva1KI5We8TkoSeDXXn0S57WKQ-0FKcnP3B9jZKR3h8BxHEpDtOFQ2Ra-s5d72xImzeAmCWEtPVxfzMT7zKcnD3_GR1lva1RjMIuRECmGTxJzJzU-_wtJjz9G78tAJ_vFG5V758CslQYHlbnd5e0gF21oI_UwvNg3lshipYIIz-NL-4YUCGbu_E6tNgKYLPoJuAj_DfjfQRoBwCKiMIaYbYuDnN6w8iXKGLCY2wuO6dvPtmI3zS8baXEAtoY7pfwmN864c31UHIjGxYSUrgHfwFjkKPF9j3F2HmZsa1wXk4DuX6GDr156PpIErMCT_X5ASy2Ur_NxyNZQTGIlTkewfctUEpJXOwcz_bgJtNzNNckcpM8YyWvjqawlId-3rQt8ySk3NTbc-4QPbhTrQ-q9ELFIzGyxt-cs_PBezARxRkWLTHyjdfT2ekVTN32yCg-NUALI8VN77L3EU49UDKukAkkVuhTvVjGNfmwNvgd3hOzrEQKLQaxbgrr2QIcQO2po8D_OWbcZkjkfDXgYO8FlF6Nfc1UJ9ke7aUJe3p5ak5FWqTwmncFyiH0fYz4NfDZbvBBn08kBf1kQhy1YHQtdBAigQk-nyl1tsLll7m00?></g></svg>