<?plantuml 1.2026.1?><svg xmlns="http://www.w3.org/2000/svg" xmlns:xlink="http://www.w3.org/1999/xlink" contentStyleType="text/css" data-diagram-type="DESCRIPTION" height="662px" preserveAspectRatio="none" style="width:843px;height:662px;background:#FFFFFF;" version="1.1" viewBox="0 0 843 662" width="843px" zoomAndPan="magnify"><defs/><g><!--cluster Infra--><g class="cluster" data-qualified-name="Infra" data-source-line="12" id="ent0006"><path d="M316.5,124.02 L357.3398,124.02 A3.75,3.75 0 0 1 359.8398,126.52 L366.8398,147.0346 L435.5,147.0346 A2.5,2.5 0 0 1 438,149.5346 L438,341.58 A2.5,2.5 0 0 1 435.5,344.08 L316.5,344.08 A2.5,2.5 0 0 1 314,341.58 L314,126.52 A2.5,2.5 0 0 1 316.5,124.02" fill="#FFFFFF" style="stroke:#000000;stroke-width:1;"/><line style="stroke:#000000;stroke-width:1;" x1="314" x2="366.8398" y1="147.0346" y2="147.0346"/><text fill="#000000" font-family="Verdana" font-size="14" font-weight="bold" lengthAdjust="spacing" textLength="39.8398" x="318" y="140.0952">Infra</text></g><!--cluster Foundation--><g class="cluster" data-qualified-name="Foundation" data-source-line="17" id="ent0009"><path d="M13.5,124.02 L103.0527,124.02 A3.75,3.75 0 0 1 105.5527,126.52 L112.5527,147.0346 L287.5,147.0346 A2.5,2.5 0 0 1 290,149.5346 L290,341.58 A2.5,2.5 0 0 1 287.5,344.08 L13.5,344.08 A2.5,2.5 0 0 1 11,341.58 L11,126.52 A2.5,2.5 0 0 1 13.5,124.02" fill="#FFFFFF" style="stroke:#000000;stroke-width:1;"/><line style="stroke:#000000;stroke-width:1;" x1="11" x2="112.5527" y1="147.0346" y2="147.0346"/><text fill="#000000" font-family="Verdana" font-size="14" font-weight="bold" lengthAdjust="spacing" textLength="88.5527" x="15" y="140.0952">Foundation</text></g><!--cluster Network--><g class="cluster" data-qualified-name="Network" data-source-line="23" id="ent0013"><path d="M464.5,124.02 L532.7041,124.02 A3.75,3.75 0 0 1 535.2041,126.52 L542.2041,147.0346 L583.5,147.0346 A2.5,2.5 0 0 1 586,149.5346 L586,227.55 A2.5,2.5 0 0 1 583.5,230.05 L464.5,230.05 A2.5,2.5 0 0 1 462,227.55 L462,126.52 A2.5,2.5 0 0 1 464.5,124.02" fill="#FFFFFF" style="stroke:#000000;stroke-width:1;"/><line style="stroke:#000000;stroke-width:1;" x1="462" x2="542.2041" y1="147.0346" y2="147.0346"/><text fill="#000000" font-family="Verdana" font-size="14" font-weight="bold" lengthAdjust="spacing" textLength="67.2041" x="466" y="140.0952">Network</text></g><!--cluster Utils--><g class="cluster" data-qualified-name="Utils" data-source-line="27" id="ent0015"><path d="M612.5,124.02 L649.1221,124.02 A3.75,3.75 0 0 1 651.6221,126.52 L658.6221,147.0346 L731.5,147.0346 A2.5,2.5 0 0 1 734,149.5346 L734,227.55 A2.5,2.5 0 0 1 731.5,230.05 L612.5,230.05 A2.5,2.5 0 0 1 610,227.55 L610,126.52 A2.5,2.5 0 0 1 612.5,124.02" fill="#FFFFFF" style="stroke:#000000;stroke-width:1;"/><line style="stroke:#000000;stroke-width:1;" x1="610" x2="658.6221" y1="147.0346" y2="147.0346"/><text fill="#000000" font-family="Verdana" font-size="14" font-weight="bold" lengthAdjust="spacing" textLength="35.6221" x="614" y="140.0952">Utils</text></g><!--cluster Feature Layer--><g class="cluster" data-qualified-name="Feature Layer" data-source-line="31" id="ent0017"><path d="M69.5,11 L179.2871,11 A3.75,3.75 0 0 1 181.7871,13.5 L188.7871,34.0146 L358.5,34.0146 A2.5,2.5 0 0 1 361,36.5146 L361,97.52 A2.5,2.5 0 0 1 358.5,100.02 L69.5,100.02 A2.5,2.5 0 0 1 67,97.52 L67,13.5 A2.5,2.5 0 0 1 69.5,11" fill="#FFFFFF" style="stroke:#000000;stroke-width:1;"/><line style="stroke:#000000;stroke-width:1;" x1="67" x2="188.7871" y1="34.0146" y2="34.0146"/><text fill="#000000" font-family="Verdana" font-size="14" font-weight="bold" lengthAdjust="spacing" textLength="108.7871" x="71" y="27.0752">Feature Layer</text></g><!--entity mod_ioc--><g class="entity" data-qualified-name="Infra.mod_ioc" data-source-line="13" id="ent0007"><rect fill="#FFF3CD" height="54.0293" rx="2.5" ry="2.5" style="stroke:#000000;stroke-width:1;" width="91.9316" x="330.03" y="274.05"/><text fill="#000000" font-family="Verdana" font-size="14" font-style="italic" lengthAdjust="spacing" textLength="69.9316" x="341.03" y="298.1252">&#171;module&#187;</text><text fill="#000000" font-family="Verdana" font-size="14" lengthAdjust="spacing" textLength="24.165" x="363.9133" y="315.1398">IoC</text></g><!--entity mod_relux--><g class="entity" data-qualified-name="Infra.mod_relux" data-source-line="14" id="ent0008"><rect fill="#FFF3CD" height="54.0293" rx="2.5" ry="2.5" style="stroke:#000000;stroke-width:1;" width="91.9316" x="330.03" y="160.02"/><text fill="#000000" font-family="Verdana" font-size="14" font-style="italic" lengthAdjust="spacing" textLength="69.9316" x="341.03" y="184.0952">&#171;module&#187;</text><text fill="#000000" font-family="Verdana" font-size="14" lengthAdjust="spacing" textLength="39.0605" x="356.4655" y="201.1098">Relux</text></g><!--entity mod_app_config--><g class="entity" data-qualified-name="Foundation.mod_app_config" data-source-line="18" id="ent0010"><rect fill="#D6EAF8" height="54.0293" rx="2.5" ry="2.5" style="stroke:#000000;stroke-width:1;" width="91.9316" x="27.03" y="160.02"/><text fill="#000000" font-family="Verdana" font-size="14" font-style="italic" lengthAdjust="spacing" textLength="69.9316" x="38.03" y="184.0952">&#171;module&#187;</text><text fill="#000000" font-family="Verdana" font-size="14" lengthAdjust="spacing" textLength="71.6338" x="37.1789" y="201.1098">AppConfig</text></g><!--entity mod_secure_store--><g class="entity" data-qualified-name="Foundation.mod_secure_store" data-source-line="19" id="ent0011"><rect fill="#D6EAF8" height="54.0293" rx="2.5" ry="2.5" style="stroke:#000000;stroke-width:1;" width="106.2764" x="26.86" y="274.05"/><text fill="#000000" font-family="Verdana" font-size="14" font-style="italic" lengthAdjust="spacing" textLength="69.9316" x="45.0324" y="298.1252">&#171;module&#187;</text><text fill="#000000" font-family="Verdana" font-size="14" lengthAdjust="spacing" textLength="86.2764" x="36.86" y="315.1398">SecureStore</text></g><!--entity mod_token_provider--><g class="entity" data-qualified-name="Foundation.mod_token_provider" data-source-line="20" id="ent0012"><rect fill="#D6EAF8" height="54.0293" rx="2.5" ry="2.5" style="stroke:#000000;stroke-width:1;" width="120.6865" x="153.66" y="160.02"/><text fill="#000000" font-family="Verdana" font-size="14" font-style="italic" lengthAdjust="spacing" textLength="69.9316" x="179.0374" y="184.0952">&#171;module&#187;</text><text fill="#000000" font-family="Verdana" font-size="14" lengthAdjust="spacing" textLength="100.6865" x="163.66" y="201.1098">TokenProvider</text></g><!--entity mod_http_client--><g class="entity" data-qualified-name="Network.mod_http_client" data-source-line="24" id="ent0014"><rect fill="#FFE0B2" height="54.0293" rx="2.5" ry="2.5" style="stroke:#000000;stroke-width:1;" width="91.9316" x="478.03" y="160.02"/><text fill="#000000" font-family="Verdana" font-size="14" font-style="italic" lengthAdjust="spacing" textLength="69.9316" x="489.03" y="184.0952">&#171;module&#187;</text><text fill="#000000" font-family="Verdana" font-size="14" lengthAdjust="spacing" textLength="70.4512" x="488.7702" y="201.1098">HttpClient</text></g><!--entity mod_utilities--><g class="entity" data-qualified-name="Utils.mod_utilities" data-source-line="28" id="ent0016"><rect fill="#E1BEE7" height="54.0293" rx="2.5" ry="2.5" style="stroke:#000000;stroke-width:1;" width="91.9316" x="626.03" y="160.02"/><text fill="#000000" font-family="Verdana" font-size="14" font-style="italic" lengthAdjust="spacing" textLength="69.9316" x="637.03" y="184.0952">&#171;module&#187;</text><text fill="#000000" font-family="Verdana" font-size="14" lengthAdjust="spacing" textLength="52.2813" x="645.8552" y="201.1098">Utilities</text></g><!--entity FeatureModule--><g class="entity" data-qualified-name="Feature Layer.FeatureModule" data-source-line="32" id="ent0018"><rect fill="#F5E6CC" height="37.0146" rx="2.5" ry="2.5" style="stroke:#000000;stroke-width:1;" width="261.3359" x="83.33" y="47"/><text fill="#000000" font-family="Verdana" font-size="14" lengthAdjust="spacing" textLength="241.3359" x="93.33" y="71.0752">Feature Module (relux + backend)</text></g><!--entity Init--><g class="entity" data-qualified-name="Init" data-source-line="6" id="ent0002"><rect fill="#D4EDDA" height="37.0146" rx="2.5" ry="2.5" style="stroke:#000000;stroke-width:1;" width="42.0596" x="794.97" y="47"/><text fill="#000000" font-family="Verdana" font-size="14" lengthAdjust="spacing" textLength="22.0596" x="804.97" y="71.0752">init</text></g><!--entity ext_httpclient--><g class="entity" data-qualified-name="ext_httpclient" data-source-line="8" id="ent0003"><path d="M620.7721,286.4597 C624.5367,278.1949 630.6953,279.1727 635.3953,285.5238 C639.1885,278.5438 643.5817,277.1873 648.9276,284.0004 C651.7822,275.9109 655.9665,275.2511 662.0324,280.9478 C668.1133,275.4346 674.1562,275.9129 677.9023,283.7278 C682.812,277.9808 687.6993,277.4886 691.4824,284.8913 C696.6882,279.4871 701.6459,278.1835 705.4939,286.2986 C713.5827,287.4482 717.422,294.9978 712.3766,301.9305 C718.4294,308.89 714.4414,316.0128 706.3152,317.4258 C702.4653,326.7362 696.7714,326.1257 690.2254,320.29 C687.3193,326.0165 681.0651,326.8342 677.1185,321.5259 C673.666,328.9615 667.7106,329.8294 662.2136,323.7867 C657.2001,328.2451 652.3885,328.0122 649.34,321.4842 C643.6775,327.905 638.1224,328.0289 633.9287,319.9257 C628.6197,325.6118 623.9343,323.91 620.9294,317.4581 C612.0693,314.4241 610.1579,308.1915 616.5587,301.084 C611.2494,295.2216 611.8452,288.2204 620.7721,286.4597" fill="#E8F0FE" style="stroke:#000000;stroke-width:1;"/><text fill="#000000" font-family="Verdana" font-size="14" lengthAdjust="spacing" textLength="70.4512" x="626.77" y="306.6252">HttpClient</text></g><!--entity ext_swiftioc--><g class="entity" data-qualified-name="ext_swiftioc" data-source-line="9" id="ent0004"><path d="M340.3312,397.4209 C342.4787,389.9358 349.0874,388.9793 353.5677,395.1617 C356.004,388.5026 362.0345,388.3398 365.5804,394.0872 C367.7399,387.9142 371.3493,387.5348 376.2837,391.0082 C381.3189,385.246 384.7672,387.0119 388.3042,392.5955 C393.6989,388.1545 398.2952,389.2433 401.2182,395.562 C406.4553,388.984 410.9122,389.6226 414.5473,397.0831 C424.117,398.5177 427.7022,403.1608 423.1892,412.493 C427.7208,420.0663 423.0392,427.4083 414.6459,427.7389 C410.5371,434.5307 406.0012,434.7743 400.686,429.0887 C396.4259,435.1662 392.1994,434.4832 389.0053,428.0903 C386.5843,434.7129 382.5904,434.6846 377.8704,430.4477 C373.9197,437.1382 367.5588,437.1131 364.4548,429.6454 C360.7406,434.4764 354.7477,435.0704 352.1896,428.4114 C349.1399,433.6428 343.6418,432.9922 340.6488,428.3452 C331.2086,427.7693 327.4753,421.9316 332.3356,413.4007 C326.0114,404.3644 329.2433,397.745 340.3312,397.4209" fill="#E8F0FE" style="stroke:#000000;stroke-width:1;"/><text fill="#000000" font-family="Verdana" font-size="14" lengthAdjust="spacing" textLength="59.4727" x="346.26" y="417.1552">SwiftIoC</text></g><!--entity ext_swiftuirelux--><g class="entity" data-qualified-name="ext_swiftuirelux" data-source-line="10" id="ent0005"><path d="M465.6761,286.8038 C468.4959,281.1315 474.0467,279.0242 478.5113,284.9898 C482.7833,279.3692 487.4627,278.9047 491.7197,285.0067 C495.0305,277.5789 499.6006,277.1293 505.1646,282.6709 C508.8648,275.1197 513.5844,275.3731 518.9454,280.924 C523.3207,276.042 529.7273,277.0561 532.2322,283.1817 C536.3778,278.0755 542.0624,277.5777 544.9169,284.5388 C548.952,279.0394 553.6289,277.7861 557.6632,284.5396 C562.9502,279.5257 568.1202,279.2258 571.2612,286.8489 C579.3059,290.1587 579.9484,296.942 572.4831,301.5417 C579.8305,306.7525 578.9782,313.2964 571.45,317.547 C567.5909,324.823 562.6213,326.1521 557.2096,319.0889 C554.5501,325.5944 549.5604,326.6363 545.1167,320.8431 C543.3657,328.9915 536.5031,329.765 531.334,324.305 C528.6757,330.9021 523.4839,331.0552 519.0147,326.264 C513.0037,333.1507 506.8653,330.7607 504.3634,322.801 C499.8198,328.5962 495.6154,327.3339 492.1555,321.6487 C487.6728,328.006 481.0475,327.6733 478.2807,319.9569 C474.2613,325.128 468.6903,324.1423 466.9405,317.7342 C458.5194,316.1097 453.7845,310.472 460.3012,302.3858 C454.0406,294.8603 456.0068,288.8344 465.6761,286.8038" fill="#E8F0FE" style="stroke:#000000;stroke-width:1;"/><text fill="#000000" font-family="Verdana" font-size="14" lengthAdjust="spacing" textLength="90.5078" x="471.75" y="306.6252">SwiftUIRelux</text></g><g class="entity" data-qualified-name="GMN19" data-source-line="36" id="ent0020"><path d="M379.64,44.71 L379.64,61.09 L345.04,65.09 L379.64,69.09 L379.64,86.3086 A0,0 0 0 0 379.64,86.3086 L760.3617,86.3086 A0,0 0 0 0 760.3617,86.3086 L760.3617,54.71 L750.3617,44.71 L379.64,44.71 A0,0 0 0 0 379.64,44.71" fill="#FFFFFF" style="stroke:#000000;stroke-width:1;"/><path d="M750.3617,44.71 L750.3617,54.71 L760.3617,54.71 L750.3617,44.71" fill="#FFFFFF" style="stroke:#000000;stroke-width:1;"/><text fill="#000000" font-family="Verdana" font-size="13" lengthAdjust="spacing" textLength="185.6563" x="385.64" y="62.7798">Conceptual runtime module.</text><text fill="#000000" font-family="Verdana" font-size="13" lengthAdjust="spacing" textLength="359.7217" x="385.64" y="78.5791">Feature modules are not registered in module registry.</text></g><!--link FeatureModule to mod_app_config--><g class="link" data-entity-1="ent0018" data-entity-2="ent0010" data-link-type="dependency" data-source-line="40" id="lnk22"><path d="M101.15,84.5 C101.15,104.66 101.15,130.71 101.15,153.61" fill="none" id="FeatureModule-to-mod_app_config" style="stroke:#000000;stroke-width:1;stroke-dasharray:7,7;"/><polygon fill="#000000" points="101.15,159.61,105.15,150.61,101.15,154.61,97.15,150.61,101.15,159.61" style="stroke:#000000;stroke-width:1;"/></g><!--link FeatureModule to mod_secure_store--><g class="link" data-entity-1="ent0018" data-entity-2="ent0011" data-link-type="dependency" data-source-line="41" id="lnk23"><path d="M126.05,84.39 C126.05,125.87 126.05,219.13 126.05,267.55" fill="none" id="FeatureModule-to-mod_secure_store" style="stroke:#000000;stroke-width:1;stroke-dasharray:7,7;"/><polygon fill="#000000" points="126.05,273.55,130.05,264.55,126.05,268.55,122.05,264.55,126.05,273.55" style="stroke:#000000;stroke-width:1;"/></g><!--link FeatureModule to mod_token_provider--><g class="link" data-entity-1="ent0018" data-entity-2="ent0012" data-link-type="dependency" data-source-line="42" id="lnk24"><path d="M214,84.5 C214,104.66 214,130.71 214,153.61" fill="none" id="FeatureModule-to-mod_token_provider" style="stroke:#000000;stroke-width:1;stroke-dasharray:7,7;"/><polygon fill="#000000" points="214,159.61,218,150.61,214,154.61,210,150.61,214,159.61" style="stroke:#000000;stroke-width:1;"/></g><!--link FeatureModule to mod_http_client--><g class="link" data-entity-1="ent0018" data-entity-2="ent0014" data-link-type="dependency" data-source-line="43" id="lnk25"><path d="M334.91,84.16 C334.91,104.77 334.91,135.09 334.91,135.09 C334.91,135.09 524,135.09 524,135.09 C524,135.09 524,141.08 524,153.54" fill="none" id="FeatureModule-to-mod_http_client" style="stroke:#000000;stroke-width:1;stroke-dasharray:7,7;"/><polygon fill="#000000" points="524,159.54,528,150.54,524,154.54,520,150.54,524,159.54" style="stroke:#000000;stroke-width:1;"/></g><!--link FeatureModule to mod_utilities--><g class="link" data-entity-1="ent0018" data-entity-2="ent0016" data-link-type="dependency" data-source-line="44" id="lnk26"><path d="M339.79,84.31 C339.79,96.87 339.79,111.09 339.79,111.09 C339.79,111.09 672,111.09 672,111.09 C672,111.09 672,131.86 672,153.61" fill="none" id="FeatureModule-to-mod_utilities" style="stroke:#000000;stroke-width:1;stroke-dasharray:7,7;"/><polygon fill="#000000" points="672,159.61,676,150.61,672,154.61,668,150.61,672,159.61" style="stroke:#000000;stroke-width:1;"/></g><!--link mod_relux to mod_ioc--><g class="link" data-entity-1="ent0008" data-entity-2="ent0007" data-link-type="dependency" data-source-line="46" id="lnk27"><path d="M376,214.34 C376,232.27 376,249.62 376,267.58" fill="none" id="mod_relux-to-mod_ioc" style="stroke:#000000;stroke-width:1;"/><polygon fill="#000000" points="376,273.58,380,264.58,376,268.58,372,264.58,376,273.58" style="stroke:#000000;stroke-width:1;"/></g><!--link mod_app_config to mod_ioc--><g class="link" data-entity-1="ent0010" data-entity-2="ent0007" data-link-type="dependency" data-source-line="47" id="lnk28"><path d="M119.17,187.09 C132.44,187.09 143.4,187.09 143.4,187.09 C143.4,187.09 143.4,301.09 143.4,301.09 C143.4,301.09 255.93,301.09 323.77,301.09" fill="none" id="mod_app_config-to-mod_ioc" style="stroke:#000000;stroke-width:1;"/><polygon fill="#000000" points="329.77,301.09,320.77,297.09,324.77,301.09,320.77,305.09,329.77,301.09" style="stroke:#000000;stroke-width:1;"/></g><!--link mod_app_config to mod_secure_store--><g class="link" data-entity-1="ent0010" data-entity-2="ent0011" data-link-type="dependency" data-source-line="48" id="lnk29"><path d="M73,214.34 C73,232.27 73,249.62 73,267.58" fill="none" id="mod_app_config-to-mod_secure_store" style="stroke:#000000;stroke-width:1;"/><polygon fill="#000000" points="73,273.58,77,264.58,73,268.58,69,264.58,73,273.58" style="stroke:#000000;stroke-width:1;"/></g><!--link mod_http_client to mod_ioc--><g class="link" data-entity-1="ent0014" data-entity-2="ent0007" data-link-type="dependency" data-source-line="49" id="lnk30"><path d="M477.72,178.09 C457.95,178.09 439.36,178.09 439.36,178.09 C439.36,178.09 439.36,301.09 439.36,301.09 C439.36,301.09 438.04,301.09 428.38,301.09" fill="none" id="mod_http_client-to-mod_ioc" style="stroke:#000000;stroke-width:1;"/><polygon fill="#000000" points="422.38,301.09,431.38,305.09,427.38,301.09,431.38,297.09,422.38,301.09" style="stroke:#000000;stroke-width:1;"/></g><!--link mod_ioc to ext_swiftioc--><g class="link" data-entity-1="ent0007" data-entity-2="ent0004" data-link-type="dependency" data-source-line="51" id="lnk31"><path d="M376,328.38 C376,346.53 376,364.15 376,381.58" fill="none" id="mod_ioc-to-ext_swiftioc" style="stroke:#000000;stroke-width:1;"/><polygon fill="#000000" points="376,387.58,380,378.58,376,382.58,372,378.58,376,387.58" style="stroke:#000000;stroke-width:1;"/></g><!--link mod_relux to ext_swiftuirelux--><g class="link" data-entity-1="ent0008" data-entity-2="ent0005" data-link-type="dependency" data-source-line="52" id="lnk32"><path d="M422.23,196.09 C444.9,196.09 467.39,196.09 467.39,196.09 C467.39,196.09 467.39,240.27 467.39,271.24" fill="none" id="mod_relux-to-ext_swiftuirelux" style="stroke:#000000;stroke-width:1;"/><polygon fill="#000000" points="467.39,277.24,471.39,268.24,467.39,272.24,463.39,268.24,467.39,277.24" style="stroke:#000000;stroke-width:1;"/></g><!--link mod_http_client to ext_httpclient--><g class="link" data-entity-1="ent0014" data-entity-2="ent0003" data-link-type="dependency" data-source-line="53" id="lnk33"><path d="M570.34,187.09 C594.43,187.09 618.9,187.09 618.9,187.09 C618.9,187.09 618.9,237.75 618.9,271.17" fill="none" id="mod_http_client-to-ext_httpclient" style="stroke:#000000;stroke-width:1;"/><polygon fill="#000000" points="618.9,277.17,622.9,268.17,618.9,272.17,614.9,268.17,618.9,277.17" style="stroke:#000000;stroke-width:1;"/></g><g class="legend" data-source-line="55"><rect fill="none" height="201.1611" rx="7.5" ry="7.5" style="stroke:#000000;stroke-width:1;" width="416.4922" x="407.5374" y="448.1382"/><text fill="#000000" font-family="Verdana" font-size="14" font-weight="bold" lengthAdjust="spacing" textLength="41.0977" x="417.3225" y="469.2134">Color</text><text fill="#000000" font-family="Verdana" font-size="14" font-weight="bold" lengthAdjust="spacing" textLength="66.4385" x="467.9905" y="469.2134">Meaning</text><rect fill="#D4EDDA" height="17.0146" style="stroke:none;stroke-width:1;" width="50.668" x="412.5374" y="472.1529"/><text fill="#000000" font-family="Verdana" font-size="14" lengthAdjust="spacing" textLength="4.9219" x="412.5374" y="486.2281">&#160;</text><text fill="#000000" font-family="Verdana" font-size="14" lengthAdjust="spacing" textLength="145.8789" x="468.1272" y="486.2281">Root command (init)</text><rect fill="#FFF3CD" height="17.0146" style="stroke:none;stroke-width:1;" width="50.668" x="412.5374" y="489.1675"/><text fill="#000000" font-family="Verdana" font-size="14" lengthAdjust="spacing" textLength="4.9219" x="412.5374" y="503.2427">&#160;</text><text fill="#000000" font-family="Verdana" font-size="14" lengthAdjust="spacing" textLength="90.8564" x="468.1272" y="503.2427">Infra module</text><rect fill="#D6EAF8" height="17.0146" style="stroke:none;stroke-width:1;" width="50.668" x="412.5374" y="506.1822"/><text fill="#000000" font-family="Verdana" font-size="14" lengthAdjust="spacing" textLength="4.9219" x="412.5374" y="520.2574">&#160;</text><text fill="#000000" font-family="Verdana" font-size="14" lengthAdjust="spacing" textLength="134.9072" x="468.1272" y="520.2574">Foundation module</text><rect fill="#FFE0B2" height="17.0146" style="stroke:none;stroke-width:1;" width="50.668" x="412.5374" y="523.1968"/><text fill="#000000" font-family="Verdana" font-size="14" lengthAdjust="spacing" textLength="4.9219" x="412.5374" y="537.272">&#160;</text><text fill="#000000" font-family="Verdana" font-size="14" lengthAdjust="spacing" textLength="115.3428" x="468.1272" y="537.272">Network module</text><rect fill="#E1BEE7" height="17.0146" style="stroke:none;stroke-width:1;" width="50.668" x="412.5374" y="540.2115"/><text fill="#000000" font-family="Verdana" font-size="14" lengthAdjust="spacing" textLength="4.9219" x="412.5374" y="554.2867">&#160;</text><text fill="#000000" font-family="Verdana" font-size="14" lengthAdjust="spacing" textLength="87.541" x="468.1272" y="554.2867">Utils module</text><rect fill="#F5E6CC" height="17.0146" style="stroke:none;stroke-width:1;" width="50.668" x="412.5374" y="557.2261"/><text fill="#000000" font-family="Verdana" font-size="14" lengthAdjust="spacing" textLength="4.9219" x="412.5374" y="571.3013">&#160;</text><text fill="#000000" font-family="Verdana" font-size="14" lengthAdjust="spacing" textLength="160.4805" x="468.1272" y="571.3013">Feature layer template</text><rect fill="#E8F0FE" height="17.0146" style="stroke:none;stroke-width:1;" width="50.668" x="412.5374" y="574.2408"/><text fill="#000000" font-family="Verdana" font-size="14" lengthAdjust="spacing" textLength="4.9219" x="412.5374" y="588.316">&#160;</text><text fill="#000000" font-family="Verdana" font-size="14" lengthAdjust="spacing" textLength="147.4854" x="468.1272" y="588.316">External dependency</text><line style="stroke:#000000;stroke-width:1;" x1="412.5374" x2="633.5296" y1="455.1382" y2="455.1382"/><line style="stroke:#000000;stroke-width:1;" x1="412.5374" x2="633.5296" y1="472.1529" y2="472.1529"/><line style="stroke:#000000;stroke-width:1;" x1="412.5374" x2="633.5296" y1="489.1675" y2="489.1675"/><line style="stroke:#000000;stroke-width:1;" x1="412.5374" x2="633.5296" y1="506.1822" y2="506.1822"/><line style="stroke:#000000;stroke-width:1;" x1="412.5374" x2="633.5296" y1="523.1968" y2="523.1968"/><line style="stroke:#000000;stroke-width:1;" x1="412.5374" x2="633.5296" y1="540.2115" y2="540.2115"/><line style="stroke:#000000;stroke-width:1;" x1="412.5374" x2="633.5296" y1="557.2261" y2="557.2261"/><line style="stroke:#000000;stroke-width:1;" x1="412.5374" x2="633.5296" y1="574.2408" y2="574.2408"/><line style="stroke:#000000;stroke-width:1;" x1="412.5374" x2="633.5296" y1="591.2554" y2="591.2554"/><line style="stroke:#000000;stroke-width:1;" x1="412.5374" x2="412.5374" y1="455.1382" y2="591.2554"/><line style="stroke:#000000;stroke-width:1;" x1="463.2054" x2="463.2054" y1="455.1382" y2="591.2554"/><line style="stroke:#000000;stroke-width:1;" x1="633.5296" x2="633.5296" y1="455.1382" y2="591.2554"/><text fill="#000000" font-family="Verdana" font-size="14" lengthAdjust="spacing" textLength="12.7148" x="412.5374" y="607.3306">--</text><text fill="#000000" font-family="Verdana" font-size="14" lengthAdjust="spacing" textLength="251.6582" x="412.5374" y="624.3453">Solid arrows = registry dependency</text><text fill="#000000" font-family="Verdana" font-size="14" lengthAdjust="spacing" textLength="406.4922" x="412.5374" y="641.3599">Dashed arrows = conceptual feature runtime dependency</text></g><?plantuml-src ZLLTRzem57tth_3WfTK4whwwFb0a2ec6j4vJMP-g2Nd99LWOstASKTJkl-_Q-I0EeEsbjOxFFRPpxhcyiMlO0jM2SKb8lk5ICyEsL709Tg-1AcFNghMHgArM4gHTsBq0QY2nJ6O227dYajkVbELqZWlQdtsCPhC98ObGHKfxNwpLKy6nikSuy6oNQuGI3z5-T1DVnL5DNkpuoixLjA7c3k0gEKbyd3-0A9v3Si6D0vi2ebcoOHdGtbok3ElH5q8Fhq6qEcshqgKxQ3J2LI5WFARzE8u_J6SX_t2agoZFEb7pftLmh0gPCdo6F3fzelLKoHNF6aMczJBnK20xkuucyKrOl82aCB2moa1JddjicJlmdm8_r0RaTwD-ynHC8s4TkjGLV4ga_RXlO7VAR8vUrl7T2JlVbvNnuIUBhkxU1wgFbelyIDEXt7B86ycYHWB1wDrT57qEFG1cySFGhspldkg4dshitXVIYzBCj_GN5e5CBtrJLwIAquy_HTVJgPEMoc8EUBQsLAr26egZgmbeMp11JI4jnx2LznlYPdrmYUIKuHhbC5KPpoqOI2cNrMu5clsGu9qS3JCNNceu77TQvmoXtHndAA7vPqWj8yym6by8ESHaC1ZNCIETLl-FhU3otNPgrvCwoWvi3v7ELReZuwHeEAy84P0v6xplwEJhBJejb76BUs2Iouo-EfoEga4unlM3GdEnZxSCIo_SlBniMEMyS2m_dshN6n6VEBTzc29TJfaVnwd2s2MKUN04dwkZUj_J_eogCOLB2RMmnHy8szBn8zKHesTiKudDdOB6xm4osNlMO81_5ahm59lQg5rERvi6Rd6HD6Fv6bgiv12OLNMBEZYjElnVEa3-0W00?></g></svg>