<?plantuml 1.2026.1?><svg xmlns="http://www.w3.org/2000/svg" xmlns:xlink="http://www.w3.org/1999/xlink" contentStyleType="text/css" data-diagram-type="DESCRIPTION" height="780px" preserveAspectRatio="none" style="width:1392px;height:780px;background:#FFFFFF;" version="1.1" viewBox="0 0 1392 780" width="1392px" zoomAndPan="magnify"><defs/><g><!--cluster Infra--><g class="cluster" data-qualified-name="Infra" data-source-line="10" id="ent0005"><path d="M316.5,124.01 L357.3398,124.01 A3.75,3.75 0 0 1 359.8398,126.51 L366.8398,147.0246 L750.5,147.0246 A2.5,2.5 0 0 1 753,149.5246 L753,569.63 A2.5,2.5 0 0 1 750.5,572.13 L316.5,572.13 A2.5,2.5 0 0 1 314,569.63 L314,126.51 A2.5,2.5 0 0 1 316.5,124.01" fill="#FFFFFF" style="stroke:#000000;stroke-width:1;"/><line style="stroke:#000000;stroke-width:1;" x1="314" x2="366.8398" y1="147.0246" y2="147.0246"/><text fill="#000000" font-family="Verdana" font-size="14" font-weight="bold" lengthAdjust="spacing" textLength="39.8398" x="318" y="140.0852">Infra</text></g><!--cluster Foundation--><g class="cluster" data-qualified-name="Foundation" data-source-line="21" id="ent0014"><path d="M13.5,124.01 L103.0527,124.01 A3.75,3.75 0 0 1 105.5527,126.51 L112.5527,147.0246 L287.5,147.0246 A2.5,2.5 0 0 1 290,149.5246 L290,341.57 A2.5,2.5 0 0 1 287.5,344.07 L13.5,344.07 A2.5,2.5 0 0 1 11,341.57 L11,126.51 A2.5,2.5 0 0 1 13.5,124.01" fill="#FFFFFF" style="stroke:#000000;stroke-width:1;"/><line style="stroke:#000000;stroke-width:1;" x1="11" x2="112.5527" y1="147.0246" y2="147.0246"/><text fill="#000000" font-family="Verdana" font-size="14" font-weight="bold" lengthAdjust="spacing" textLength="88.5527" x="15" y="140.0852">Foundation</text></g><!--cluster Network--><g class="cluster" data-qualified-name="Network" data-source-line="27" id="ent0018"><path d="M779.5,124.01 L847.7041,124.01 A3.75,3.75 0 0 1 850.2041,126.51 L857.2041,147.0246 L898.5,147.0246 A2.5,2.5 0 0 1 901,149.5246 L901,227.54 A2.5,2.5 0 0 1 898.5,230.04 L779.5,230.04 A2.5,2.5 0 0 1 777,227.54 L777,126.51 A2.5,2.5 0 0 1 779.5,124.01" fill="#FFFFFF" style="stroke:#000000;stroke-width:1;"/><line style="stroke:#000000;stroke-width:1;" x1="777" x2="857.2041" y1="147.0246" y2="147.0246"/><text fill="#000000" font-family="Verdana" font-size="14" font-weight="bold" lengthAdjust="spacing" textLength="67.2041" x="781" y="140.0852">Network</text></g><!--cluster Utils--><g class="cluster" data-qualified-name="Utils" data-source-line="31" id="ent0020"><path d="M927.5,124.01 L964.1221,124.01 A3.75,3.75 0 0 1 966.6221,126.51 L973.6221,147.0246 L1342.5,147.0246 A2.5,2.5 0 0 1 1345,149.5246 L1345,227.54 A2.5,2.5 0 0 1 1342.5,230.04 L927.5,230.04 A2.5,2.5 0 0 1 925,227.54 L925,126.51 A2.5,2.5 0 0 1 927.5,124.01" fill="#FFFFFF" style="stroke:#000000;stroke-width:1;"/><line style="stroke:#000000;stroke-width:1;" x1="925" x2="973.6221" y1="147.0246" y2="147.0246"/><text fill="#000000" font-family="Verdana" font-size="14" font-weight="bold" lengthAdjust="spacing" textLength="35.6221" x="929" y="140.0852">Utils</text></g><!--cluster Feature Layer--><g class="cluster" data-qualified-name="Feature Layer" data-source-line="37" id="ent0024"><path d="M694.5,11 L804.2871,11 A3.75,3.75 0 0 1 806.7871,13.5 L813.7871,34.0146 L983.5,34.0146 A2.5,2.5 0 0 1 986,36.5146 L986,97.51 A2.5,2.5 0 0 1 983.5,100.01 L694.5,100.01 A2.5,2.5 0 0 1 692,97.51 L692,13.5 A2.5,2.5 0 0 1 694.5,11" fill="#FFFFFF" style="stroke:#000000;stroke-width:1;"/><line style="stroke:#000000;stroke-width:1;" x1="692" x2="813.7871" y1="34.0146" y2="34.0146"/><text fill="#000000" font-family="Verdana" font-size="14" font-weight="bold" lengthAdjust="spacing" textLength="108.7871" x="696" y="27.0752">Feature Layer</text></g><!--entity mod_app_extensions--><g class="entity" data-qualified-name="Infra.mod_app_extensions" data-source-line="11" id="ent0006"><rect fill="#FFF3CD" height="54.0293" rx="2.5" ry="2.5" style="stroke:#000000;stroke-width:1;" width="127.5771" x="354.21" y="502.1"/><text fill="#000000" font-family="Verdana" font-size="14" font-style="italic" lengthAdjust="spacing" textLength="69.9316" x="383.0328" y="526.1752">&#171;module&#187;</text><text fill="#000000" font-family="Verdana" font-size="14" lengthAdjust="spacing" textLength="107.5771" x="364.21" y="543.1898">App Extensions</text></g><!--entity mod_app_intents--><g class="entity" data-qualified-name="Infra.mod_app_intents" data-source-line="12" id="ent0007"><rect fill="#FFF3CD" height="54.0293" rx="2.5" ry="2.5" style="stroke:#000000;stroke-width:1;" width="102.2158" x="366.89" y="274.04"/><text fill="#000000" font-family="Verdana" font-size="14" font-style="italic" lengthAdjust="spacing" textLength="69.9316" x="383.0321" y="298.1152">&#171;module&#187;</text><text fill="#000000" font-family="Verdana" font-size="14" lengthAdjust="spacing" textLength="82.2158" x="376.89" y="315.1298">App Intents</text></g><!--entity mod_init--><g class="entity" data-qualified-name="Infra.mod_init" data-source-line="13" id="ent0008"><rect fill="#FFF3CD" height="54.0293" rx="2.5" ry="2.5" style="stroke:#000000;stroke-width:1;" width="91.9316" x="643.03" y="388.07"/><text fill="#000000" font-family="Verdana" font-size="14" font-style="italic" lengthAdjust="spacing" textLength="69.9316" x="654.03" y="412.1452">&#171;module&#187;</text><text fill="#000000" font-family="Verdana" font-size="14" lengthAdjust="spacing" textLength="24.1104" x="676.9406" y="429.1598">Init</text></g><!--entity mod_ioc--><g class="entity" data-qualified-name="Infra.mod_ioc" data-source-line="14" id="ent0009"><rect fill="#FFF3CD" height="54.0293" rx="2.5" ry="2.5" style="stroke:#000000;stroke-width:1;" width="91.9316" x="645.03" y="274.04"/><text fill="#000000" font-family="Verdana" font-size="14" font-style="italic" lengthAdjust="spacing" textLength="69.9316" x="656.03" y="298.1152">&#171;module&#187;</text><text fill="#000000" font-family="Verdana" font-size="14" lengthAdjust="spacing" textLength="24.165" x="678.9133" y="315.1298">IoC</text></g><!--entity mod_live_activity--><g class="entity" data-qualified-name="Infra.mod_live_activity" data-source-line="15" id="ent0010"><rect fill="#FFF3CD" height="54.0293" rx="2.5" ry="2.5" style="stroke:#000000;stroke-width:1;" width="105.333" x="504.33" y="274.04"/><text fill="#000000" font-family="Verdana" font-size="14" font-style="italic" lengthAdjust="spacing" textLength="69.9316" x="522.0307" y="298.1152">&#171;module&#187;</text><text fill="#000000" font-family="Verdana" font-size="14" lengthAdjust="spacing" textLength="85.333" x="514.33" y="315.1298">Live Activity</text></g><!--entity mod_relux--><g class="entity" data-qualified-name="Infra.mod_relux" data-source-line="16" id="ent0011"><rect fill="#FFF3CD" height="54.0293" rx="2.5" ry="2.5" style="stroke:#000000;stroke-width:1;" width="91.9316" x="645.03" y="160.01"/><text fill="#000000" font-family="Verdana" font-size="14" font-style="italic" lengthAdjust="spacing" textLength="69.9316" x="656.03" y="184.0852">&#171;module&#187;</text><text fill="#000000" font-family="Verdana" font-size="14" lengthAdjust="spacing" textLength="39.0605" x="671.4655" y="201.0998">Relux</text></g><!--entity mod_static_widget--><g class="entity" data-qualified-name="Infra.mod_static_widget" data-source-line="17" id="ent0012"><rect fill="#FFF3CD" height="54.0293" rx="2.5" ry="2.5" style="stroke:#000000;stroke-width:1;" width="114.0557" x="345.97" y="160.01"/><text fill="#000000" font-family="Verdana" font-size="14" font-style="italic" lengthAdjust="spacing" textLength="69.9316" x="368.032" y="184.0852">&#171;module&#187;</text><text fill="#000000" font-family="Verdana" font-size="14" lengthAdjust="spacing" textLength="94.0557" x="355.97" y="201.0998">Static Widget</text></g><!--entity mod_widget_base--><g class="entity" data-qualified-name="Infra.mod_widget_base" data-source-line="18" id="ent0013"><rect fill="#FFF3CD" height="54.0293" rx="2.5" ry="2.5" style="stroke:#000000;stroke-width:1;" width="107.5479" x="364.23" y="388.07"/><text fill="#000000" font-family="Verdana" font-size="14" font-style="italic" lengthAdjust="spacing" textLength="69.9316" x="383.0381" y="412.1452">&#171;module&#187;</text><text fill="#000000" font-family="Verdana" font-size="14" lengthAdjust="spacing" textLength="87.5479" x="374.23" y="429.1598">Widget Base</text></g><!--entity mod_app_config--><g class="entity" data-qualified-name="Foundation.mod_app_config" data-source-line="22" id="ent0015"><rect fill="#D6EAF8" height="54.0293" rx="2.5" ry="2.5" style="stroke:#000000;stroke-width:1;" width="91.9316" x="27.03" y="160.01"/><text fill="#000000" font-family="Verdana" font-size="14" font-style="italic" lengthAdjust="spacing" textLength="69.9316" x="38.03" y="184.0852">&#171;module&#187;</text><text fill="#000000" font-family="Verdana" font-size="14" lengthAdjust="spacing" textLength="71.6338" x="37.1789" y="201.0998">AppConfig</text></g><!--entity mod_secure_store--><g class="entity" data-qualified-name="Foundation.mod_secure_store" data-source-line="23" id="ent0016"><rect fill="#D6EAF8" height="54.0293" rx="2.5" ry="2.5" style="stroke:#000000;stroke-width:1;" width="106.2764" x="26.86" y="274.04"/><text fill="#000000" font-family="Verdana" font-size="14" font-style="italic" lengthAdjust="spacing" textLength="69.9316" x="45.0324" y="298.1152">&#171;module&#187;</text><text fill="#000000" font-family="Verdana" font-size="14" lengthAdjust="spacing" textLength="86.2764" x="36.86" y="315.1298">SecureStore</text></g><!--entity mod_token_provider--><g class="entity" data-qualified-name="Foundation.mod_token_provider" data-source-line="24" id="ent0017"><rect fill="#D6EAF8" height="54.0293" rx="2.5" ry="2.5" style="stroke:#000000;stroke-width:1;" width="120.6865" x="153.66" y="160.01"/><text fill="#000000" font-family="Verdana" font-size="14" font-style="italic" lengthAdjust="spacing" textLength="69.9316" x="179.0374" y="184.0852">&#171;module&#187;</text><text fill="#000000" font-family="Verdana" font-size="14" lengthAdjust="spacing" textLength="100.6865" x="163.66" y="201.0998">TokenProvider</text></g><!--entity mod_http_client--><g class="entity" data-qualified-name="Network.mod_http_client" data-source-line="28" id="ent0019"><rect fill="#FFE0B2" height="54.0293" rx="2.5" ry="2.5" style="stroke:#000000;stroke-width:1;" width="91.9316" x="793.03" y="160.01"/><text fill="#000000" font-family="Verdana" font-size="14" font-style="italic" lengthAdjust="spacing" textLength="69.9316" x="804.03" y="184.0852">&#171;module&#187;</text><text fill="#000000" font-family="Verdana" font-size="14" lengthAdjust="spacing" textLength="70.4512" x="803.7702" y="201.0998">HttpClient</text></g><!--entity mod_foundation_plus--><g class="entity" data-qualified-name="Utils.mod_foundation_plus" data-source-line="32" id="ent0021"><rect fill="#E1BEE7" height="54.0293" rx="2.5" ry="2.5" style="stroke:#000000;stroke-width:1;" width="126.5449" x="940.73" y="160.01"/><text fill="#000000" font-family="Verdana" font-size="14" font-style="italic" lengthAdjust="spacing" textLength="69.9316" x="969.0366" y="184.0852">&#171;module&#187;</text><text fill="#000000" font-family="Verdana" font-size="14" lengthAdjust="spacing" textLength="106.5449" x="950.73" y="201.0998">FoundationPlus</text></g><!--entity mod_swiftui_plus--><g class="entity" data-qualified-name="Utils.mod_swiftui_plus" data-source-line="33" id="ent0022"><rect fill="#E1BEE7" height="54.0293" rx="2.5" ry="2.5" style="stroke:#000000;stroke-width:1;" width="99.8848" x="1102.06" y="160.01"/><text fill="#000000" font-family="Verdana" font-size="14" font-style="italic" lengthAdjust="spacing" textLength="69.9316" x="1117.0366" y="184.0852">&#171;module&#187;</text><text fill="#000000" font-family="Verdana" font-size="14" lengthAdjust="spacing" textLength="79.8848" x="1112.06" y="201.0998">SwiftUIPlus</text></g><!--entity mod_utilities--><g class="entity" data-qualified-name="Utils.mod_utilities" data-source-line="34" id="ent0023"><rect fill="#E1BEE7" height="54.0293" rx="2.5" ry="2.5" style="stroke:#000000;stroke-width:1;" width="91.9316" x="1237.03" y="160.01"/><text fill="#000000" font-family="Verdana" font-size="14" font-style="italic" lengthAdjust="spacing" textLength="69.9316" x="1248.03" y="184.0852">&#171;module&#187;</text><text fill="#000000" font-family="Verdana" font-size="14" lengthAdjust="spacing" textLength="52.2813" x="1256.8552" y="201.0998">Utilities</text></g><!--entity FeatureModule--><g class="entity" data-qualified-name="Feature Layer.FeatureModule" data-source-line="38" id="ent0025"><rect fill="#F5E6CC" height="37.0146" rx="2.5" ry="2.5" style="stroke:#000000;stroke-width:1;" width="261.3359" x="708.33" y="47"/><text fill="#000000" font-family="Verdana" font-size="14" lengthAdjust="spacing" textLength="241.3359" x="718.33" y="71.0752">Feature Module (relux + backend)</text></g><!--entity ext_httpclient--><g class="entity" data-qualified-name="ext_httpclient" data-source-line="6" id="ent0002"><path d="M935.7721,286.4597 C939.5367,278.1949 945.6953,279.1727 950.3953,285.5238 C954.1885,278.5438 958.5817,277.1873 963.9276,284.0004 C966.7822,275.9109 970.9665,275.2511 977.0324,280.9478 C983.1133,275.4346 989.1562,275.9129 992.9023,283.7278 C997.812,277.9808 1002.6993,277.4886 1006.4824,284.8913 C1011.6882,279.4871 1016.6459,278.1835 1020.4939,286.2986 C1028.5827,287.4482 1032.422,294.9978 1027.3766,301.9305 C1033.4294,308.89 1029.4414,316.0128 1021.3152,317.4258 C1017.4653,326.7362 1011.7714,326.1257 1005.2254,320.29 C1002.3193,326.0165 996.0651,326.8342 992.1185,321.5259 C988.666,328.9615 982.7106,329.8294 977.2136,323.7867 C972.2001,328.2451 967.3885,328.0122 964.34,321.4842 C958.6775,327.905 953.1224,328.0289 948.9287,319.9257 C943.6197,325.6118 938.9343,323.91 935.9294,317.4581 C927.0693,314.4241 925.1579,308.1915 931.5587,301.084 C926.2494,295.2216 926.8452,288.2204 935.7721,286.4597" fill="#E8F0FE" style="stroke:#000000;stroke-width:1;"/><text fill="#000000" font-family="Verdana" font-size="14" lengthAdjust="spacing" textLength="70.4512" x="941.77" y="306.6252">HttpClient</text></g><!--entity ext_swiftioc--><g class="entity" data-qualified-name="ext_swiftioc" data-source-line="7" id="ent0003"><path d="M779.3312,400.9209 C781.4787,393.4358 788.0874,392.4793 792.5677,398.6617 C795.004,392.0026 801.0345,391.8398 804.5804,397.5872 C806.7399,391.4142 810.3493,391.0348 815.2837,394.5082 C820.3189,388.746 823.7672,390.5119 827.3042,396.0955 C832.6989,391.6545 837.2952,392.7433 840.2182,399.062 C845.4553,392.484 849.9122,393.1226 853.5473,400.5831 C863.117,402.0177 866.7022,406.6608 862.1892,415.993 C866.7208,423.5663 862.0392,430.9083 853.6459,431.2389 C849.5371,438.0307 845.0012,438.2743 839.686,432.5887 C835.4259,438.6662 831.1994,437.9832 828.0053,431.5903 C825.5843,438.2129 821.5904,438.1846 816.8704,433.9477 C812.9197,440.6382 806.5588,440.6131 803.4548,433.1454 C799.7406,437.9764 793.7477,438.5704 791.1896,431.9114 C788.1399,437.1428 782.6418,436.4922 779.6488,431.8452 C770.2086,431.2693 766.4753,425.4316 771.3356,416.9007 C765.0114,407.8644 768.2433,401.245 779.3312,400.9209" fill="#E8F0FE" style="stroke:#000000;stroke-width:1;"/><text fill="#000000" font-family="Verdana" font-size="14" lengthAdjust="spacing" textLength="59.4727" x="785.26" y="420.6552">SwiftIoC</text></g><!--entity ext_swiftuirelux--><g class="entity" data-qualified-name="ext_swiftuirelux" data-source-line="8" id="ent0004"><path d="M780.6761,286.8038 C783.4959,281.1315 789.0467,279.0242 793.5113,284.9898 C797.7833,279.3692 802.4627,278.9047 806.7197,285.0067 C810.0305,277.5789 814.6006,277.1293 820.1646,282.6709 C823.8648,275.1197 828.5844,275.3731 833.9454,280.924 C838.3207,276.042 844.7273,277.0561 847.2322,283.1817 C851.3778,278.0755 857.0624,277.5777 859.9169,284.5388 C863.952,279.0394 868.6289,277.7861 872.6632,284.5396 C877.9502,279.5257 883.1202,279.2258 886.2612,286.8489 C894.3059,290.1587 894.9484,296.942 887.4831,301.5417 C894.8305,306.7525 893.9782,313.2964 886.45,317.547 C882.5909,324.823 877.6213,326.1521 872.2096,319.0889 C869.5501,325.5944 864.5604,326.6363 860.1167,320.8431 C858.3657,328.9915 851.5031,329.765 846.334,324.305 C843.6757,330.9021 838.4839,331.0552 834.0147,326.264 C828.0037,333.1507 821.8653,330.7607 819.3634,322.801 C814.8198,328.5962 810.6154,327.3339 807.1555,321.6487 C802.6728,328.006 796.0475,327.6733 793.2807,319.9569 C789.2613,325.128 783.6903,324.1423 781.9405,317.7342 C773.5194,316.1097 768.7845,310.472 775.3012,302.3858 C769.0406,294.8603 771.0068,288.8344 780.6761,286.8038" fill="#E8F0FE" style="stroke:#000000;stroke-width:1;"/><text fill="#000000" font-family="Verdana" font-size="14" lengthAdjust="spacing" textLength="90.5078" x="786.75" y="306.6252">SwiftUIRelux</text></g><g class="entity" data-qualified-name="GMN26" data-source-line="42" id="ent0027"><path d="M1004.64,44.71 L1004.64,61.13 L970.04,65.13 L1004.64,69.13 L1004.64,86.3086 A0,0 0 0 0 1004.64,86.3086 L1385.3617,86.3086 A0,0 0 0 0 1385.3617,86.3086 L1385.3617,54.71 L1375.3617,44.71 L1004.64,44.71 A0,0 0 0 0 1004.64,44.71" fill="#FFFFFF" style="stroke:#000000;stroke-width:1;"/><path d="M1375.3617,44.71 L1375.3617,54.71 L1385.3617,54.71 L1375.3617,44.71" fill="#FFFFFF" style="stroke:#000000;stroke-width:1;"/><text fill="#000000" font-family="Verdana" font-size="13" lengthAdjust="spacing" textLength="185.6563" x="1010.64" y="62.7798">Conceptual runtime module.</text><text fill="#000000" font-family="Verdana" font-size="13" lengthAdjust="spacing" textLength="359.7217" x="1010.64" y="78.5791">Feature modules are not registered in module registry.</text></g><!--link FeatureModule to mod_app_config--><g class="link" data-entity-1="ent0025" data-entity-2="ent0015" data-link-type="dependency" data-source-line="46" id="lnk29"><path d="M708.19,56.13 C489.41,56.13 73,56.13 73,56.13 C73,56.13 73,115.2 73,153.59" fill="none" id="FeatureModule-to-mod_app_config" style="stroke:#000000;stroke-width:1;stroke-dasharray:7,7;"/><polygon fill="#000000" points="73,159.59,77,150.59,73,154.59,69,150.59,73,159.59" style="stroke:#000000;stroke-width:1;"/></g><!--link FeatureModule to mod_secure_store--><g class="link" data-entity-1="ent0025" data-entity-2="ent0016" data-link-type="dependency" data-source-line="47" id="lnk30"><path d="M708.23,65.13 C502.41,65.13 126.05,65.13 126.05,65.13 C126.05,65.13 126.05,206.02 126.05,267.99" fill="none" id="FeatureModule-to-mod_secure_store" style="stroke:#000000;stroke-width:1;stroke-dasharray:7,7;"/><polygon fill="#000000" points="126.05,273.99,130.05,264.99,126.05,268.99,122.05,264.99,126.05,273.99" style="stroke:#000000;stroke-width:1;"/></g><!--link FeatureModule to mod_token_provider--><g class="link" data-entity-1="ent0025" data-entity-2="ent0017" data-link-type="dependency" data-source-line="48" id="lnk31"><path d="M707.98,75.13 C524.71,75.13 214,75.13 214,75.13 C214,75.13 214,120.53 214,153.65" fill="none" id="FeatureModule-to-mod_token_provider" style="stroke:#000000;stroke-width:1;stroke-dasharray:7,7;"/><polygon fill="#000000" points="214,159.65,218,150.65,214,154.65,210,150.65,214,159.65" style="stroke:#000000;stroke-width:1;"/></g><!--link FeatureModule to mod_http_client--><g class="link" data-entity-1="ent0025" data-entity-2="ent0019" data-link-type="dependency" data-source-line="49" id="lnk32"><path d="M839,84.49 C839,104.65 839,130.7 839,153.6" fill="none" id="FeatureModule-to-mod_http_client" style="stroke:#000000;stroke-width:1;stroke-dasharray:7,7;"/><polygon fill="#000000" points="839,159.6,843,150.6,839,154.6,835,150.6,839,159.6" style="stroke:#000000;stroke-width:1;"/></g><!--link FeatureModule to mod_foundation_plus--><g class="link" data-entity-1="ent0025" data-entity-2="ent0021" data-link-type="dependency" data-source-line="50" id="lnk33"><path d="M947.96,84.49 C947.96,104.65 947.96,130.7 947.96,153.6" fill="none" id="FeatureModule-to-mod_foundation_plus" style="stroke:#000000;stroke-width:1;stroke-dasharray:7,7;"/><polygon fill="#000000" points="947.96,159.6,951.96,150.6,947.96,154.6,943.96,150.6,947.96,159.6" style="stroke:#000000;stroke-width:1;"/></g><!--link FeatureModule to mod_swiftui_plus--><g class="link" data-entity-1="ent0025" data-entity-2="ent0022" data-link-type="dependency" data-source-line="51" id="lnk34"><path d="M955.2,84.16 C955.2,104.79 955.2,135.13 955.2,135.13 C955.2,135.13 1152,135.13 1152,135.13 C1152,135.13 1152,141.11 1152,153.56" fill="none" id="FeatureModule-to-mod_swiftui_plus" style="stroke:#000000;stroke-width:1;stroke-dasharray:7,7;"/><polygon fill="#000000" points="1152,159.56,1156,150.56,1152,154.56,1148,150.56,1152,159.56" style="stroke:#000000;stroke-width:1;"/></g><!--link FeatureModule to mod_utilities--><g class="link" data-entity-1="ent0025" data-entity-2="ent0023" data-link-type="dependency" data-source-line="52" id="lnk35"><path d="M962.43,84.33 C962.43,96.89 962.43,111.13 962.43,111.13 C962.43,111.13 1283,111.13 1283,111.13 C1283,111.13 1283,131.89 1283,153.63" fill="none" id="FeatureModule-to-mod_utilities" style="stroke:#000000;stroke-width:1;stroke-dasharray:7,7;"/><polygon fill="#000000" points="1283,159.63,1287,150.63,1283,154.63,1279,150.63,1283,159.63" style="stroke:#000000;stroke-width:1;"/></g><!--link mod_app_intents to mod_widget_base--><g class="link" data-entity-1="ent0007" data-entity-2="ent0013" data-link-type="dependency" data-source-line="54" id="lnk36"><path d="M418,328.37 C418,346.29 418,363.64 418,381.6" fill="none" id="mod_app_intents-to-mod_widget_base" style="stroke:#000000;stroke-width:1;"/><polygon fill="#000000" points="418,387.6,422,378.6,418,382.6,414,378.6,418,387.6" style="stroke:#000000;stroke-width:1;"/></g><!--link mod_ioc to mod_init--><g class="link" data-entity-1="ent0009" data-entity-2="ent0008" data-link-type="dependency" data-source-line="55" id="lnk37"><path d="M690,328.37 C690,346.29 690,363.64 690,381.6" fill="none" id="mod_ioc-to-mod_init" style="stroke:#000000;stroke-width:1;"/><polygon fill="#000000" points="690,387.6,694,378.6,690,382.6,686,378.6,690,387.6" style="stroke:#000000;stroke-width:1;"/></g><!--link mod_live_activity to mod_widget_base--><g class="link" data-entity-1="ent0010" data-entity-2="ent0013" data-link-type="dependency" data-source-line="56" id="lnk38"><path d="M557,328.38 C557,362.13 557,415.13 557,415.13 C557,415.13 517.17,415.13 478.14,415.13" fill="none" id="mod_live_activity-to-mod_widget_base" style="stroke:#000000;stroke-width:1;"/><polygon fill="#000000" points="472.14,415.13,481.14,419.13,477.14,415.13,481.14,411.13,472.14,415.13" style="stroke:#000000;stroke-width:1;"/></g><!--link mod_relux to mod_ioc--><g class="link" data-entity-1="ent0011" data-entity-2="ent0009" data-link-type="dependency" data-source-line="57" id="lnk39"><path d="M706.32,214.34 C706.32,232.26 706.32,249.62 706.32,267.57" fill="none" id="mod_relux-to-mod_ioc" style="stroke:#000000;stroke-width:1;"/><polygon fill="#000000" points="706.32,273.57,710.32,264.57,706.32,268.57,702.32,264.57,706.32,273.57" style="stroke:#000000;stroke-width:1;"/></g><!--link mod_static_widget to mod_app_intents--><g class="link" data-entity-1="ent0012" data-entity-2="ent0007" data-link-type="dependency" data-source-line="58" id="lnk40"><path d="M413.46,214.34 C413.46,232.26 413.46,249.62 413.46,267.57" fill="none" id="mod_static_widget-to-mod_app_intents" style="stroke:#000000;stroke-width:1;"/><polygon fill="#000000" points="413.46,273.57,417.46,264.57,413.46,268.57,409.46,264.57,413.46,273.57" style="stroke:#000000;stroke-width:1;"/></g><!--link mod_static_widget to mod_widget_base--><g class="link" data-entity-1="ent0012" data-entity-2="ent0013" data-link-type="dependency" data-source-line="59" id="lnk41"><path d="M359.22,214.54 C359.22,275.21 359.22,415.13 359.22,415.13 C359.22,415.13 354.96,415.13 357.83,415.13" fill="none" id="mod_static_widget-to-mod_widget_base" style="stroke:#000000;stroke-width:1;"/><polygon fill="#000000" points="363.83,415.13,354.83,411.13,358.83,415.13,354.83,419.13,363.83,415.13" style="stroke:#000000;stroke-width:1;"/></g><!--link mod_widget_base to mod_app_extensions--><g class="link" data-entity-1="ent0013" data-entity-2="ent0006" data-link-type="dependency" data-source-line="60" id="lnk42"><path d="M418,442.4 C418,460.32 418,477.67 418,495.63" fill="none" id="mod_widget_base-to-mod_app_extensions" style="stroke:#000000;stroke-width:1;"/><polygon fill="#000000" points="418,501.63,422,492.63,418,496.63,414,492.63,418,501.63" style="stroke:#000000;stroke-width:1;"/></g><!--link mod_app_config to mod_ioc--><g class="link" data-entity-1="ent0015" data-entity-2="ent0009" data-link-type="dependency" data-source-line="61" id="lnk43"><path d="M88.32,214.24 C88.32,228.95 88.32,244.13 88.32,244.13 C88.32,244.13 675.68,244.13 675.68,244.13 C675.68,244.13 675.68,253.04 675.68,267.59" fill="none" id="mod_app_config-to-mod_ioc" style="stroke:#000000;stroke-width:1;"/><polygon fill="#000000" points="675.68,273.59,679.68,264.59,675.68,268.59,671.68,264.59,675.68,273.59" style="stroke:#000000;stroke-width:1;"/></g><!--link mod_app_config to mod_secure_store--><g class="link" data-entity-1="ent0015" data-entity-2="ent0016" data-link-type="dependency" data-source-line="62" id="lnk44"><path d="M57.68,214.34 C57.68,232.26 57.68,249.62 57.68,267.57" fill="none" id="mod_app_config-to-mod_secure_store" style="stroke:#000000;stroke-width:1;"/><polygon fill="#000000" points="57.68,273.57,61.68,264.57,57.68,268.57,53.68,264.57,57.68,273.57" style="stroke:#000000;stroke-width:1;"/></g><!--link mod_http_client to mod_ioc--><g class="link" data-entity-1="ent0019" data-entity-2="ent0009" data-link-type="dependency" data-source-line="63" id="lnk45"><path d="M792.73,178.13 C770.27,178.13 748.07,178.13 748.07,178.13 C748.07,178.13 748.07,293.13 748.07,293.13 C748.07,293.13 749.68,293.13 743.33,293.13" fill="none" id="mod_http_client-to-mod_ioc" style="stroke:#000000;stroke-width:1;"/><polygon fill="#000000" points="737.33,293.13,746.33,297.13,742.33,293.13,746.33,289.13,737.33,293.13" style="stroke:#000000;stroke-width:1;"/></g><!--link mod_ioc to ext_swiftioc--><g class="link" data-entity-1="ent0009" data-entity-2="ent0003" data-link-type="dependency" data-source-line="65" id="lnk46"><path d="M737.22,309.13 C749.38,309.13 759.16,309.13 759.16,309.13 C759.16,309.13 759.16,415.13 759.16,415.13 C759.16,415.13 757.58,415.13 763.93,415.13" fill="none" id="mod_ioc-to-ext_swiftioc" style="stroke:#000000;stroke-width:1;"/><polygon fill="#000000" points="769.93,415.13,760.93,411.13,764.93,415.13,760.93,419.13,769.93,415.13" style="stroke:#000000;stroke-width:1;"/></g><!--link mod_relux to ext_swiftuirelux--><g class="link" data-entity-1="ent0011" data-entity-2="ent0004" data-link-type="dependency" data-source-line="66" id="lnk47"><path d="M737.23,196.13 C759.9,196.13 782.39,196.13 782.39,196.13 C782.39,196.13 782.39,240.29 782.39,271.25" fill="none" id="mod_relux-to-ext_swiftuirelux" style="stroke:#000000;stroke-width:1;"/><polygon fill="#000000" points="782.39,277.25,786.39,268.25,782.39,272.25,778.39,268.25,782.39,277.25" style="stroke:#000000;stroke-width:1;"/></g><!--link mod_http_client to ext_httpclient--><g class="link" data-entity-1="ent0019" data-entity-2="ent0002" data-link-type="dependency" data-source-line="67" id="lnk48"><path d="M885.27,187.13 C909.32,187.13 933.75,187.13 933.75,187.13 C933.75,187.13 933.75,237.77 933.75,271.17" fill="none" id="mod_http_client-to-ext_httpclient" style="stroke:#000000;stroke-width:1;"/><polygon fill="#000000" points="933.75,277.17,937.75,268.17,933.75,272.17,929.75,268.17,933.75,277.17" style="stroke:#000000;stroke-width:1;"/></g><g class="legend" data-source-line="69"><rect fill="none" height="184.1465" rx="7.5" ry="7.5" style="stroke:#000000;stroke-width:1;" width="416.4922" x="956.8695" y="583.13"/><text fill="#000000" font-family="Verdana" font-size="14" font-weight="bold" lengthAdjust="spacing" textLength="41.0977" x="966.6546" y="604.2052">Color</text><text fill="#000000" font-family="Verdana" font-size="14" font-weight="bold" lengthAdjust="spacing" textLength="66.4385" x="1017.3226" y="604.2052">Meaning</text><rect fill="#FFF3CD" height="17.0146" style="stroke:none;stroke-width:1;" width="50.668" x="961.8695" y="607.1446"/><text fill="#000000" font-family="Verdana" font-size="14" lengthAdjust="spacing" textLength="4.9219" x="961.8695" y="621.2198">&#160;</text><text fill="#000000" font-family="Verdana" font-size="14" lengthAdjust="spacing" textLength="90.8564" x="1017.4593" y="621.2198">Infra module</text><rect fill="#D6EAF8" height="17.0146" style="stroke:none;stroke-width:1;" width="50.668" x="961.8695" y="624.1593"/><text fill="#000000" font-family="Verdana" font-size="14" lengthAdjust="spacing" textLength="4.9219" x="961.8695" y="638.2345">&#160;</text><text fill="#000000" font-family="Verdana" font-size="14" lengthAdjust="spacing" textLength="134.9072" x="1017.4593" y="638.2345">Foundation module</text><rect fill="#FFE0B2" height="17.0146" style="stroke:none;stroke-width:1;" width="50.668" x="961.8695" y="641.1739"/><text fill="#000000" font-family="Verdana" font-size="14" lengthAdjust="spacing" textLength="4.9219" x="961.8695" y="655.2491">&#160;</text><text fill="#000000" font-family="Verdana" font-size="14" lengthAdjust="spacing" textLength="115.3428" x="1017.4593" y="655.2491">Network module</text><rect fill="#E1BEE7" height="17.0146" style="stroke:none;stroke-width:1;" width="50.668" x="961.8695" y="658.1886"/><text fill="#000000" font-family="Verdana" font-size="14" lengthAdjust="spacing" textLength="4.9219" x="961.8695" y="672.2638">&#160;</text><text fill="#000000" font-family="Verdana" font-size="14" lengthAdjust="spacing" textLength="87.541" x="1017.4593" y="672.2638">Utils module</text><rect fill="#F5E6CC" height="17.0146" style="stroke:none;stroke-width:1;" width="50.668" x="961.8695" y="675.2032"/><text fill="#000000" font-family="Verdana" font-size="14" lengthAdjust="spacing" textLength="4.9219" x="961.8695" y="689.2784">&#160;</text><text fill="#000000" font-family="Verdana" font-size="14" lengthAdjust="spacing" textLength="160.4805" x="1017.4593" y="689.2784">Feature layer template</text><rect fill="#E8F0FE" height="17.0146" style="stroke:none;stroke-width:1;" width="50.668" x="961.8695" y="692.2179"/><text fill="#000000" font-family="Verdana" font-size="14" lengthAdjust="spacing" textLength="4.9219" x="961.8695" y="706.2931">&#160;</text><text fill="#000000" font-family="Verdana" font-size="14" lengthAdjust="spacing" textLength="147.4854" x="1017.4593" y="706.2931">External dependency</text><line style="stroke:#000000;stroke-width:1;" x1="961.8695" x2="1182.8617" y1="590.13" y2="590.13"/><line style="stroke:#000000;stroke-width:1;" x1="961.8695" x2="1182.8617" y1="607.1446" y2="607.1446"/><line style="stroke:#000000;stroke-width:1;" x1="961.8695" x2="1182.8617" y1="624.1593" y2="624.1593"/><line style="stroke:#000000;stroke-width:1;" x1="961.8695" x2="1182.8617" y1="641.1739" y2="641.1739"/><line style="stroke:#000000;stroke-width:1;" x1="961.8695" x2="1182.8617" y1="658.1886" y2="658.1886"/><line style="stroke:#000000;stroke-width:1;" x1="961.8695" x2="1182.8617" y1="675.2032" y2="675.2032"/><line style="stroke:#000000;stroke-width:1;" x1="961.8695" x2="1182.8617" y1="692.2179" y2="692.2179"/><line style="stroke:#000000;stroke-width:1;" x1="961.8695" x2="1182.8617" y1="709.2325" y2="709.2325"/><line style="stroke:#000000;stroke-width:1;" x1="961.8695" x2="961.8695" y1="590.13" y2="709.2325"/><line style="stroke:#000000;stroke-width:1;" x1="1012.5375" x2="1012.5375" y1="590.13" y2="709.2325"/><line style="stroke:#000000;stroke-width:1;" x1="1182.8617" x2="1182.8617" y1="590.13" y2="709.2325"/><text fill="#000000" font-family="Verdana" font-size="14" lengthAdjust="spacing" textLength="12.7148" x="961.8695" y="725.3077">--</text><text fill="#000000" font-family="Verdana" font-size="14" lengthAdjust="spacing" textLength="251.6582" x="961.8695" y="742.3224">Solid arrows = registry dependency</text><text fill="#000000" font-family="Verdana" font-size="14" lengthAdjust="spacing" textLength="406.4922" x="961.8695" y="759.337">Dashed arrows = conceptual feature runtime dependency</text></g><?plantuml-src ZLPTRzCm57tthp3T2mYr6Y367hPAMvU8IWDDb8a7X28lkKsjkdRaEDignd_dEf-ssr9UjlJut9FhwtkFyygiO0Eq48nBGierbmNJR4C5bs2s1L2bpKev2wdQ54g2D0kp5K0rf8R9N00XgL1LHaUVZIbcWYDZH5b9uTaaAuJI6g8dqNby6aSTUV74bsQkPZsrj01NwLxY_VmRYEhP9rTSMx0F80LBrom7EfhBfMOZ-flG8MiwkYeA6ZqRa2LNigorDYfBM54aqCFquWB1Ii1qIa_YEFumkzbLcKka6r-2DzZH-BdafW_a-EDuH5kbEW0BT8n_on-1NgM6FtApxIC5eWbhqQCQGxbjR5FdOp4BmmnFwG-UvJ1iiQpHvAb6ZseqmVIQbT0hDA790sBxulyu1n-hIcRuFYNtdVvCoINFlLDBQyYJlJcBhkBpO6kGLXeMHkaXhRB6S7y87XNuhjOWxxHwv1deNi9OD2bQU9-8kxclO9wKNk_iB9WxAspdBca7pozPT7hztbEzDroKEvf38Uz4DJJwieUJ0d5FEtft7KMVWherm-jfjBFxVm8sEsuu3E5LX-oBzNe1cC43ehTiQqjkD_YpmxxKWVHrqzXlwGC6WSpU_B9lQKajvoJ-69tDPbPQAeE-n_ELeMhfqr0Skok5mbHCK5r9mz5Sc_mckDYzk45Aol0PvT15SruQq91HBjlL5jJR2S6SB0qzrazgCfa6BNo0u3Rf0OhVX0T8JaCTO0IjSIWVv_0FKFe39YJqrl5u6Ze2wLonMxEMIdODxr1eqm5zi4h9hcbrgqug_s25Rt3jorKQxXmIk56OpPubxrp3YNVZlVguzsom-_1MtIlgN-c42CXjXzOZWKt-Seb389Is3r-0IIvp-c9nUj6QzHIVwykvQ_LkkR4xkpmuJyXfpCjoMYSC2Oq9M49jQZlnzI3NxsYdKLXhe0Os-1La79twUy8IxUU2bZZH6HIuKv3fjcQDn_XdeGJFS9ArUYhfPJ-r3XT9DwnSWSDA1vTOjbbqRk74uV-cjkGl?></g></svg>